<?xml version="1.0" standalone="no"?>
<!DOCTYPE svg PUBLIC "-//W3C//DTD SVG 1.1//EN" "http://www.w3.org/Graphics/SVG/1.1/DTD/svg11.dtd" >
<svg xmlns="http://www.w3.org/2000/svg" xmlns:xlink="http://www.w3.org/1999/xlink" version="1.1">
<metadata>
Created by FontForge 20170731 at Tue May  7 16:46:30 2019
 By Aleksey,,,
Belgacom
</metadata>
<defs>
<font id="Proximus-ExtraBold" horiz-adv-x="1630" >
  <font-face 
    font-family="Proximus ExtraBold"
    font-weight="800"
    font-stretch="normal"
    units-per-em="2048"
    panose-1="0 0 9 0 0 0 0 0 0 0"
    ascent="1638"
    descent="-410"
    x-height="1024"
    cap-height="1516"
    bbox="-176 -449 2540 2251"
    underline-thickness="102"
    underline-position="-1123"
    unicode-range="U+0020-FB04"
  />
<missing-glyph horiz-adv-x="748" 
d="M68 0v1365h544v-1365h-544zM136 68h408v1229h-408v-1229z" />
    <glyph glyph-name="uniFB01" unicode="fi" horiz-adv-x="1472" 
d="M66 731v293h165v2q0 489 545 490h66v-308h-66q-102 0 -143 -37.5t-43 -146.5h756v-1024h-359v731h-397v-731h-359v731h-165zM973 1356q0 82 57 138t135 56q80 0 137.5 -56t57.5 -138q0 -80 -57.5 -137.5t-137.5 -57.5q-78 0 -135 57.5t-57 137.5z" />
    <glyph glyph-name="uniFB02" unicode="fl" horiz-adv-x="1671" 
d="M66 731v293h165v2q0 489 545 490h570v-1010q0 -111 50 -156t167 -41h63v-309h-63q-289 0 -432.5 123t-143.5 418v667h-211q-102 0 -143 -37.5t-43 -146.5h252v-293h-252v-731h-359v731h-165z" />
    <glyph glyph-name=".notdef" horiz-adv-x="748" 
d="M68 0v1365h544v-1365h-544zM136 68h408v1229h-408v-1229z" />
    <glyph glyph-name="glyph1" horiz-adv-x="0" 
 />
    <glyph glyph-name="glyph2" horiz-adv-x="682" 
 />
    <glyph glyph-name="space" unicode=" " horiz-adv-x="509" 
 />
    <glyph glyph-name="exclam" unicode="!" horiz-adv-x="620" 
d="M111 164q0 82 58 141.5t140 59.5q84 0 142.5 -58.5t58.5 -142.5q0 -82 -59.5 -140.5t-141.5 -58.5t-140 58.5t-58 140.5zM129 967v549h363v-549l-50 -492h-264z" />
    <glyph glyph-name="quotedbl" unicode="&#x22;" horiz-adv-x="970" 
d="M88 1386q0 66 36 115t134 49t134 -49t36 -115q0 -72 -46 -280.5t-71 -278.5h-106q-25 70 -71 279t-46 280zM543 1386q0 66 35.5 115t134.5 49q98 0 134 -49t36 -115q0 -72 -46 -280.5t-71 -278.5h-107q-25 70 -70.5 279t-45.5 280z" />
    <glyph glyph-name="numbersign" unicode="#" horiz-adv-x="1718" 
d="M111 299l75 299h185l55 242h-174l76 297h168l86 379h319l-86 -379h244l86 379h319l-86 -379h230l-76 -297h-223l-56 -242h213l-75 -299h-205l-70 -299h-319l69 299h-243l-70 -299h-320l70 299h-192zM690 598h244l55 242h-244z" />
    <glyph glyph-name="dollar" unicode="$" horiz-adv-x="1624" 
d="M199 1108q0 199 130 307.5t351 128.5v217h268v-219q209 -18 414 -92l-53 -295q-10 0 -76 19q-182 47 -285 61v-301q170 -57 270.5 -120.5t149.5 -155t49 -228.5q0 -178 -117.5 -298t-351.5 -155v-219h-268v211q-213 14 -340 66.5t-135 54.5l76 299q80 -37 186 -66.5
t213 -39.5v354q-188 61 -291.5 124.5t-146.5 144.5t-43 202zM578 1139q0 -41 20 -65.5t82 -49.5v205q-102 -23 -102 -90zM948 303q53 21 72.5 52.5t19.5 74.5q0 35 -20.5 58.5t-71.5 50.5v-236z" />
    <glyph glyph-name="percent" unicode="%" horiz-adv-x="2760" 
d="M221 1139q0 201 106.5 306t319.5 105q211 0 318.5 -105.5t107.5 -305.5q0 -193 -108.5 -302.5t-317.5 -109.5q-211 0 -318.5 108.5t-107.5 303.5zM530 1139q0 -92 27 -132t90 -40q61 0 89 40t28 132q0 96 -26.5 134t-90.5 38q-63 0 -90 -38t-27 -134zM711 8l962 1516h377
l-963 -1516h-376zM1688 391q0 201 106.5 306.5t319.5 105.5q210 0 318 -105.5t108 -306.5q0 -193 -109 -302t-317 -109q-211 0 -318.5 108.5t-107.5 302.5zM1997 391q0 -92 26.5 -132t90.5 -40q61 0 88.5 40t27.5 132q0 96 -26.5 134t-89.5 38q-64 0 -90.5 -38t-26.5 -134z
" />
    <glyph glyph-name="ampersand" unicode="&#x26;" horiz-adv-x="1685" 
d="M82 375q0 143 80 242.5t256 213.5q-70 78 -111 161t-41 194q0 84 47 167t156 140t276 57q248 0 365 -98t117 -246q0 -104 -77 -204.5t-224 -208.5l248 -263q70 76 108 140l252 -199q-68 -98 -141 -174l280 -295h-471l-82 86q-203 -109 -420 -108q-270 0 -444 97t-174 298
zM457 412q0 -74 69.5 -106t173.5 -32q97 1 195 52l-262 276q-98 -61 -137 -100t-39 -90zM645 1174q0 -43 20.5 -82t55.5 -82q66 39 100.5 78.5t34.5 91.5q0 84 -108 84q-54 0 -78.5 -27t-24.5 -63z" />
    <glyph glyph-name="quotesingle" unicode="'" horiz-adv-x="516" 
d="M88 1386q0 66 36 115t134 49t134 -49t36 -115q0 -72 -46 -280.5t-71 -278.5h-106q-25 70 -71 279t-46 280z" />
    <glyph glyph-name="parenleft" unicode="(" horiz-adv-x="839" 
d="M176 670q0 227 81 484t251 493l244 -125q-99 -166 -149 -393.5t-50 -450.5q0 -221 50 -450.5t149 -397.5l-244 -125q-170 233 -251 487t-81 478z" />
    <glyph glyph-name="parenright" unicode=")" horiz-adv-x="839" 
d="M88 -170q98 170 149.5 398.5t51.5 449.5t-51.5 449.5t-149.5 394.5l244 125q170 -236 251 -493t81 -484q0 -223 -81 -477t-251 -488z" />
    <glyph glyph-name="asterisk" unicode="*" horiz-adv-x="1509" 
d="M221 1049l92 254l346 -170l-63 -177zM367 645l229 311l158 -92l-154 -354zM621 1516h270l-39 -381l344 168l92 -254l-375 -93l-63 177h-191zM756 864l159 92l228 -311l-234 -135z" />
    <glyph glyph-name="plus" unicode="+" horiz-adv-x="1529" 
d="M176 528v289h445v469h288v-469h445v-289h-445v-469h-288v469h-445z" />
    <glyph glyph-name="comma" unicode="," horiz-adv-x="665" 
d="M133 162q0 84 58.5 141t144.5 57q82 0 139 -54t57 -169q0 -113 -53 -208t-120.5 -156.5t-110.5 -75.5l-96 86q25 18 62.5 81.5t35.5 119.5q-53 27 -85 72.5t-32 105.5z" />
    <glyph glyph-name="hyphen" unicode="-" horiz-adv-x="1007" 
d="M176 526v291h655v-291h-655z" />
    <glyph glyph-name="period" unicode="." horiz-adv-x="661" 
d="M133 162q0 82 57.5 140t139.5 58t140 -58t58 -140q0 -80 -58 -138.5t-140 -58.5t-139.5 58.5t-57.5 138.5z" />
    <glyph glyph-name="slash" unicode="/" horiz-adv-x="1398" 
d="M133 0l758 1516h375l-758 -1516h-375z" />
    <glyph glyph-name="zero" unicode="0" horiz-adv-x="1669" 
d="M111 758q0 -389 182 -591t543 -202q358 0 540.5 202t182.5 591q0 387 -182.5 589.5t-540.5 202.5q-361 0 -543 -201.5t-182 -590.5zM489 758q0 256 80 369.5t267 113.5q186 0 266 -113.5t80 -369.5t-80 -370t-266 -114t-266.5 114t-80.5 370z" />
    <glyph glyph-name="one" unicode="1" horiz-adv-x="1130" 
d="M41 1374l504 142h252v-1219h301v-297h-1008v297h346v862l-313 -67z" />
    <glyph glyph-name="two" unicode="2" horiz-adv-x="1298" 
d="M66 0v147q0 373 335 611q72 51 205 127q127 72 186.5 122t59.5 117q0 63 -58.5 96t-166.5 33q-117 0 -199 -25.5t-209 -88.5l-125 266q152 90 279 117.5t280 27.5q205 0 331 -58t181.5 -150.5t55.5 -198.5q0 -119 -63.5 -212t-141.5 -151.5t-178 -117.5q-16 -8 -41 -25
q-13 -8 -28 -17.5t-34 -21.5q-123 -72 -190.5 -137.5t-67.5 -163.5h731v-297h-1142z" />
    <glyph glyph-name="three" unicode="3" horiz-adv-x="1331" 
d="M23 102l108 283q229 -117 447 -117q162 0 233.5 50.5t71.5 170.5q0 172 -248 170l-248 -2v291h172q158 0 217.5 35t59.5 123q0 59 -56.5 100t-197.5 41q-127 0 -219.5 -20.5t-200.5 -57.5l-107 265q135 59 260 87.5t287 28.5q188 0 324.5 -54t207 -153.5t70.5 -232.5
q0 -188 -129 -287q178 -137 178 -334q0 -164 -80.5 -281.5t-229 -180t-349.5 -62.5q-174 0 -312.5 34t-258.5 103z" />
    <glyph glyph-name="four" unicode="4" horiz-adv-x="1445" 
d="M88 305v297l514 914h369l-498 -914h356v346h363v-346h188v-297h-188v-305h-363v305h-741z" />
    <glyph glyph-name="five" unicode="5" horiz-adv-x="1400" 
d="M100 82l111 283q205 -96 438 -97q147 0 215 71t68 191q0 221 -246 222q-86 0 -142.5 -27t-89 -53.5t-40.5 -32.5h-299l123 877h970v-297h-669l-35 -230q115 57 246 58q264 0 407 -128t143 -382q0 -172 -77.5 -301.5t-221 -200t-337.5 -70.5q-338 0 -564 117z" />
    <glyph glyph-name="six" unicode="6" horiz-adv-x="1441" 
d="M100 662q0 481 191.5 681.5t556.5 200.5q98 0 194.5 -15.5t161.5 -35.5l-86 -287q-53 14 -128 24.5t-130 10.5q-160 0 -246 -65.5t-118 -221.5q135 90 327 90q156 0 276 -59t187.5 -178t67.5 -287q0 -250 -150.5 -402.5t-451.5 -152.5q-338 0 -495 177t-157 520zM469 629
q0 -184 59.5 -275.5t214.5 -91.5q134 0 194 66.5t60 183.5q0 109 -64.5 174.5t-191.5 65.5q-100 0 -160.5 -36t-111.5 -87z" />
    <glyph glyph-name="seven" unicode="7" horiz-adv-x="1216" 
d="M23 1219v297h1116v-297l-602 -1219h-385l602 1219h-731z" />
    <glyph glyph-name="eight" unicode="8" horiz-adv-x="1404" 
d="M78 420q0 150 66.5 247t205.5 146q-231 92 -231 340q0 193 151.5 295t431.5 102q281 0 432.5 -102t151.5 -295q0 -244 -231 -340q141 -47 206.5 -144.5t65.5 -248.5q0 -217 -161.5 -336t-460.5 -119q-301 0 -464 119t-163 336zM436 418q0 -90 69.5 -139.5t196.5 -49.5
t196 49.5t69 139.5q0 109 -53.5 166t-211.5 57t-212 -57.5t-54 -165.5zM479 1151q0 -90 48 -131t173 -41q129 0 177.5 41t48.5 131q0 68 -58.5 104.5t-165.5 36.5q-106 0 -164.5 -36.5t-58.5 -104.5z" />
    <glyph glyph-name="nine" unicode="9" horiz-adv-x="1441" 
d="M88 997q0 158 65.5 281t200.5 194.5t338 71.5q314 0 481.5 -152.5t167.5 -514.5q0 -444 -182 -679t-565 -235q-96 0 -176 13.5t-131 25.5t-66 16l80 301q47 -20 127 -36.5t150 -16.5q170 0 257 80t117 234q-143 -100 -342 -101q-240 0 -381 132t-141 386zM444 1008
q0 -111 59.5 -174.5t184.5 -63.5q94 0 154.5 34t91.5 62.5t39 34.5q0 143 -36 219t-93.5 101.5t-141.5 25.5q-125 0 -191.5 -67.5t-66.5 -171.5z" />
    <glyph glyph-name="colon" unicode=":" horiz-adv-x="661" 
d="M133 162q0 82 57.5 140t139.5 58t140 -58t58 -140q0 -80 -58 -138.5t-140 -58.5t-139.5 58.5t-57.5 138.5zM133 846q0 82 57.5 140t139.5 58t140 -58t58 -140t-58 -139.5t-140 -57.5t-139.5 57.5t-57.5 139.5z" />
    <glyph glyph-name="semicolon" unicode=";" horiz-adv-x="665" 
d="M133 184q0 84 58.5 141.5t144.5 57.5q82 0 139 -53.5t57 -167.5q0 -113 -52 -208t-120.5 -156.5t-111.5 -78.5l-96 86q12 10 36.5 44t43 76t18.5 81q-53 27 -85 73t-32 105zM135 846q0 82 57.5 140t139.5 58t140 -58t58 -140t-58 -139.5t-140 -57.5t-139.5 57.5
t-57.5 139.5z" />
    <glyph glyph-name="less" unicode="&#x3c;" horiz-adv-x="1529" 
d="M176 528v289l1178 469v-289l-815 -323l815 -324v-289z" />
    <glyph glyph-name="equal" unicode="=" horiz-adv-x="1474" 
d="M176 281v288h1122v-288h-1122zM176 782v289h1122v-289h-1122z" />
    <glyph glyph-name="greater" unicode="&#x3e;" horiz-adv-x="1529" 
d="M176 61v289l815 324l-815 323v289l1178 -469v-289z" />
    <glyph glyph-name="question" unicode="?" horiz-adv-x="1341" 
d="M111 1413q131 72 262 104.5t280 32.5q281 0 429.5 -110.5t148.5 -296.5q0 -119 -63.5 -202t-239.5 -167q-109 -53 -148 -78.5t-50 -61.5t-11 -120h-346q0 166 15 234.5t67.5 113.5t197.5 121q18 8 90 45t90.5 62.5t18.5 62.5q0 39 -50 69.5t-173 30.5q-111 0 -204 -25.5
t-185 -74.5zM350 164q0 82 58.5 141.5t140.5 59.5q84 0 142.5 -58.5t58.5 -142.5q0 -82 -59.5 -140.5t-141.5 -58.5t-140.5 58.5t-58.5 140.5z" />
    <glyph glyph-name="at" unicode="@" horiz-adv-x="2611" 
d="M221 551q0 270 149.5 500.5t400.5 365.5t544 135q311 2 555 -104.5t382 -309t138 -485.5q0 -291 -135 -472t-424 -181q-131 0 -230.5 56.5t-146.5 166.5q-94 -215 -313 -215q-86 0 -173 36t-148.5 128t-61.5 250q0 166 57 308t167 228t259 86q162 0 238 -110l12 82h350
l-72 -563q-4 -45 -4 -64q0 -139 99 -139q98 0 141 93t43 286q0 305 -197.5 461.5t-535.5 156.5q-219 0 -390 -95t-266.5 -255t-95.5 -346q0 -330 167 -505t577 -175q53 0 111.5 6t74.5 8l53 -297q-100 -23 -231 -22q-307 0 -547 77.5t-393.5 295t-153.5 612.5zM1118 459
q0 -92 35 -126t98 -34q74 0 112 27.5t52 60.5q-4 74 8 148l15 104q2 55 -23.5 85t-97.5 30q-102 0 -150.5 -66.5t-48.5 -228.5z" />
    <glyph glyph-name="A" unicode="A" 
d="M10 0l629 1516h352l629 -1516h-385l-119 301h-602l-119 -301h-385zM631 598h368l-184 469z" />
    <glyph glyph-name="B" unicode="B" horiz-adv-x="1513" 
d="M145 0v1516h658q313 0 448 -99.5t135 -306.5q0 -111 -27.5 -181.5t-107.5 -133.5q174 -124 174 -349q0 -219 -130 -332.5t-455 -113.5h-695zM508 297h332q110 0 161.5 38t51.5 126q0 98 -46 131t-167 33h-332v-328zM508 922h295q119 0 165 29.5t46 117.5q0 82 -46 116
t-165 34h-295v-297z" />
    <glyph glyph-name="C" unicode="C" horiz-adv-x="1382" 
d="M106 752q0 254 92.5 434t264.5 272t407 92q99 0 183 -13t135 -28.5t63 -19.5l-53 -291q-10 4 -52 14.5t-104.5 19.5t-128.5 9q-428 0 -428 -489q0 -236 105.5 -357t347.5 -121q74 0 142.5 9.5t111.5 19.5t55 14l51 -294q-14 -4 -67 -18.5t-139 -27t-185 -12.5
q-391 0 -596 204t-205 583z" />
    <glyph glyph-name="D" unicode="D" horiz-adv-x="1665" 
d="M145 0v1516h633q391 0 586 -187.5t195 -570.5q0 -385 -195 -571.5t-586 -186.5h-633zM508 297h270q146 0 233 45t128 145.5t41 270.5t-41 270t-128 145.5t-233 45.5h-270v-922z" />
    <glyph glyph-name="E" unicode="E" horiz-adv-x="1292" 
d="M145 0v1516h1014v-297h-651v-279h612v-297h-612v-346h674v-297h-1037z" />
    <glyph glyph-name="F" unicode="F" horiz-adv-x="1249" 
d="M145 0v1516h1026v-297h-663v-279h608v-297h-608v-643h-363z" />
    <glyph glyph-name="G" unicode="G" horiz-adv-x="1628" 
d="M106 760q0 387 209 588.5t635 201.5q96 0 182.5 -13t139.5 -27.5t67 -18.5l-53 -295q-10 4 -54 14.5t-119 20.5t-165 10q-170 0 -270 -49t-146.5 -153.5t-46.5 -278.5q0 -256 101.5 -371t328.5 -115q121 0 222 15v215h-328v297h690v-707q-4 -2 -135 -65.5t-442 -63.5
q-406 0 -611 204t-205 591z" />
    <glyph glyph-name="H" unicode="H" horiz-adv-x="1583" 
d="M145 0v1516h363v-576h567v576h363v-1516h-363v643h-567v-643h-363z" />
    <glyph glyph-name="I" unicode="I" horiz-adv-x="653" 
d="M145 0v1516h363v-1516h-363z" />
    <glyph glyph-name="J" unicode="J" horiz-adv-x="1142" 
d="M10 43q53 -33 146.5 -55.5t195.5 -22.5q332 0 489.5 169t157.5 472v910h-362v-910q0 -186 -68.5 -258t-214.5 -72q-76 0 -144.5 17.5t-113.5 38.5z" />
    <glyph glyph-name="K" unicode="K" horiz-adv-x="1521" 
d="M145 0v1516h363v-1516h-363zM539 750l501 766h406l-506 -766l582 -750h-416z" />
    <glyph glyph-name="L" unicode="L" horiz-adv-x="1222" 
d="M145 0v1516h363v-1219h637v-297h-1000z" />
    <glyph glyph-name="M" unicode="M" horiz-adv-x="1773" 
d="M145 0v1516h363l379 -701l379 701h362v-1516h-362v881l-320 -555h-119l-319 555v-881h-363z" />
    <glyph glyph-name="N" unicode="N" horiz-adv-x="1583" 
d="M145 0v1516h363l567 -900v900h363v-1516h-363v4l-567 870v-874h-363z" />
    <glyph glyph-name="O" unicode="O" horiz-adv-x="1796" 
d="M106 758q0 233 98.5 412.5t279 279.5t415.5 100q236 0 415 -100t277.5 -279.5t98.5 -412.5t-98.5 -412.5t-277.5 -280t-415 -100.5t-416 100.5t-278.5 279.5t-98.5 413zM485 758q0 -141 51.5 -251t145.5 -171.5t217 -61.5t217 61.5t145.5 171t51.5 251.5
q0 141 -51.5 250.5t-145.5 171t-217 61.5t-217 -61.5t-145.5 -171t-51.5 -250.5z" />
    <glyph glyph-name="P" unicode="P" horiz-adv-x="1505" 
d="M145 0v1516h695q305 0 452.5 -127t147.5 -398q0 -270 -147.5 -396t-452.5 -126h-332v-469h-363zM508 766h332q112 0 166.5 55.5t54.5 169.5q0 115 -54.5 171.5t-166.5 56.5h-332v-453z" />
    <glyph glyph-name="Q" unicode="Q" horiz-adv-x="1796" 
d="M106 758q0 233 98.5 412.5t279 279.5t415.5 100q231 0 411.5 -101t280 -281.5t99.5 -409.5q0 -221 -90.5 -395.5t-251.5 -276.5l114 -270l-332 -144l-126 299q-51 -6 -105 -6q-236 0 -416 100.5t-278.5 279.5t-98.5 413zM485 758q0 -137 48.5 -243.5t135.5 -170
t203 -70.5l-67 160l334 144l67 -160q105 133 105 340q0 139 -52.5 248.5t-145.5 172t-214 62.5q-123 0 -217 -61.5t-145.5 -171t-51.5 -250.5z" />
    <glyph glyph-name="R" unicode="R" horiz-adv-x="1525" 
d="M145 0v1516h674q340 0 479.5 -135.5t139.5 -368.5q0 -168 -66.5 -286t-226.5 -175l285 -551h-383l-265 506h-274v-506h-363zM508 803h311q117 0 178.5 52t61.5 157q0 102 -61.5 154.5t-178.5 52.5h-311v-416z" />
    <glyph glyph-name="S" unicode="S" horiz-adv-x="1394" 
d="M88 1108q0 223 163 332.5t427 109.5q188 0 338.5 -32.5t234.5 -69.5l-61 -291q-70 25 -206 55.5t-273 30.5q-244 0 -244 -104q0 -43 22.5 -67.5t83 -48.5t211.5 -73q190 -59 302 -123.5t166.5 -159t54.5 -237.5q0 -211 -165 -338t-489 -127q-248 0 -399.5 61.5
t-159.5 63.5l76 299q98 -47 229 -78.5t254 -31.5q164 0 220.5 40.5t56.5 110.5q0 39 -28 66.5t-94.5 55.5t-201.5 71q-205 68 -315.5 132t-156.5 146t-46 207z" />
    <glyph glyph-name="T" unicode="T" horiz-adv-x="1265" 
d="M33 1219v297h1200v-297h-420v-1219h-362v1219h-418z" />
    <glyph glyph-name="U" unicode="U" horiz-adv-x="1607" 
d="M143 616q0 -301 157 -476t507 -175q346 0 501.5 175t155.5 476v900h-362v-900q0 -145 -36 -219.5t-98.5 -98.5t-160.5 -24q-102 0 -165.5 24t-99.5 97.5t-36 220.5v900h-363v-900z" />
    <glyph glyph-name="V" unicode="V" horiz-adv-x="1519" 
d="M-23 1516h388l395 -1053l395 1053h387l-608 -1516h-348v2z" />
    <glyph glyph-name="W" unicode="W" horiz-adv-x="2291" 
d="M45 1516h367l274 -1043l279 1043h364l277 -1043l276 1043h365l-441 -1516h-399l-262 893l-258 -893h-400z" />
    <glyph glyph-name="X" unicode="X" horiz-adv-x="1499" 
d="M10 0l535 782l-502 734h412l295 -433l294 433h412l-500 -734l533 -782h-412l-327 479l-328 -479h-412z" />
    <glyph glyph-name="Y" unicode="Y" horiz-adv-x="1445" 
d="M0 1516h389l334 -631l334 631h389l-541 -959v-557h-362v557z" />
    <glyph glyph-name="Z" unicode="Z" horiz-adv-x="1329" 
d="M100 297l725 922h-708v297h1112v-297l-723 -922h723v-297h-1123z" />
    <glyph glyph-name="bracketleft" unicode="[" horiz-adv-x="958" 
d="M176 -266v1884h717v-268h-354v-1348h354v-268h-717z" />
    <glyph glyph-name="backslash" unicode="\" horiz-adv-x="1390" 
d="M125 1516l758 -1516h375l-758 1516h-375z" />
    <glyph glyph-name="bracketright" unicode="]" horiz-adv-x="958" 
d="M66 2h354v1348h-354v268h716v-1884h-716v268z" />
    <glyph glyph-name="asciicircum" unicode="^" horiz-adv-x="1742" 
d="M176 340l539 1083h313l539 -1083h-314l-383 772l-381 -772h-313z" />
    <glyph glyph-name="underscore" unicode="_" horiz-adv-x="1417" 
d="M176 -123h1065v-289h-1065v289z" />
    <glyph glyph-name="grave" unicode="`" horiz-adv-x="765" 
d="M102 1434q0 41 37 86q45 53 94 53q47 0 105 -53q68 -55 293 -342q8 -12 33 -43l-54 -64q-106 53 -245.5 131t-190.5 121q-72 57 -72 111z" />
    <glyph glyph-name="a" unicode="a" horiz-adv-x="1261" 
d="M66 289q0 150 118.5 230.5t333.5 80.5q104 0 207 -25v80q0 84 -47 111t-133 27q-150 0 -332 -48l-66 230q96 31 215 50t234 19q229 0 358 -93t129 -296v-243q0 -47 8.5 -67.5t31 -27t73.5 -6.5h33v-311h-176q-78 0 -136.5 33t-91.5 76q-51 -61 -139 -95t-209 -34
q-195 0 -303 79.5t-108 229.5zM410 297q0 -51 33.5 -85t97.5 -34q71 0 127.5 34t56.5 148v48q-82 22 -136 22h-5q-84 0 -129 -37t-45 -96z" />
    <glyph glyph-name="b" unicode="b" horiz-adv-x="1318" 
d="M129 0v1516h358v-590q112 118 315 118h3q203 0 316.5 -139t113.5 -387q0 -260 -125 -399t-340 -139q-182 0 -283 116v-96h-358zM487 377q0 -106 179 -107q106 0 158.5 63.5t52.5 178.5q0 127 -44.5 184.5t-146.5 57.5q-84 0 -128 -31t-57.5 -64.5t-13.5 -48.5v-233z" />
    <glyph glyph-name="c" unicode="c" horiz-adv-x="1024" 
d="M84 516q0 262 143.5 395t417.5 133q74 0 139.5 -7t105.5 -15l50 -10l-43 -281q-16 4 -76.5 13.5t-128.5 9.5q-133 0 -191.5 -57.5t-58.5 -186.5q0 -131 69 -190.5t187 -59.5q115 0 203 33l45 -270q-55 -23 -134 -33t-153 -10q-287 0 -431 136t-144 400z" />
    <glyph glyph-name="d" unicode="d" horiz-adv-x="1318" 
d="M84 522q0 246 113.5 384t324.5 138q195 0 309 -120v592h359v-1516h-359v96q-101 -116 -289 -116h-3q-207 0 -331 140t-124 402zM442 522q0 -125 51.5 -188.5t161.5 -63.5q176 1 176 107v233q0 14 -14 48t-57 65t-125 31q-102 0 -147.5 -57.5t-45.5 -174.5z" />
    <glyph glyph-name="e" unicode="e" horiz-adv-x="1216" 
d="M84 504q0 258 139 399t402 141q241 0 374.5 -124.5t133.5 -358.5v-45q0 -45 -7 -104h-688q10 -92 68.5 -134t202.5 -42q76 0 176 9t151 23l43 -243q-82 -20 -199.5 -32.5t-207.5 -12.5q-588 0 -588 524zM436 588h385v33q0 72 -48 110.5t-132 38.5q-111 0 -155 -47
t-50 -135z" />
    <glyph glyph-name="f" unicode="f" horiz-adv-x="970" 
d="M66 731v293h165v2q0 489 545 490h139v-308h-139q-102 0 -143 -37.5t-43 -146.5h307v-293h-307v-731h-359v731h-165z" />
    <glyph glyph-name="g" unicode="g" horiz-adv-x="1318" 
d="M84 528q0 242 113.5 379t324.5 137q195 0 309 -120v100h359v-1010q0 -119 -69.5 -222t-206 -166.5t-324.5 -63.5q-117 0 -234.5 23.5t-191.5 54.5l88 266q88 -39 174 -54.5t147 -15.5q113 0 185.5 56.5t72.5 162.5v86q-101 -116 -289 -116h-3q-135 0 -237.5 59t-160 173
t-57.5 271zM442 528q0 -98 52.5 -156.5t160.5 -58.5q80 0 128 26t48 81v190q0 14 -14 48t-57 65t-125 31q-102 0 -147.5 -56.5t-45.5 -169.5z" />
    <glyph glyph-name="h" unicode="h" horiz-adv-x="1316" 
d="M129 0v1516h358v-621q61 72 150.5 110.5t202.5 38.5q178 0 272 -99t94 -290v-655h-358v567q0 186 -164 187q-78 0 -122 -37t-59.5 -82t-15.5 -76v-559h-358z" />
    <glyph glyph-name="i" unicode="i" horiz-adv-x="612" 
d="M113 1356q0 82 57 138t135 56q80 0 137.5 -56t57.5 -138q0 -80 -57.5 -137.5t-137.5 -57.5q-78 0 -135 57.5t-57 137.5zM127 0v1024h358v-1024h-358z" />
    <glyph glyph-name="j" unicode="j" horiz-adv-x="616" 
d="M-176 -102h106q109 0 156 44t47 152v930h359v-944q0 -211 -129.5 -350.5t-432.5 -139.5h-106v308zM117 1356q0 82 57 138t135 56q80 0 137.5 -56t57.5 -138q0 -80 -57.5 -137.5t-137.5 -57.5q-78 0 -135 57.5t-57 137.5z" />
    <glyph glyph-name="k" unicode="k" horiz-adv-x="1323" 
d="M129 0v1516h358v-1516h-358zM496 565l360 459h401l-362 -459l418 -565h-398z" />
    <glyph glyph-name="l" unicode="l" horiz-adv-x="802" 
d="M119 541v975h358v-1010q1 -111 51 -156q46 -41 147 -41h19h64v-309h-64q-289 0 -432 123t-143 418z" />
    <glyph glyph-name="m" unicode="m" horiz-adv-x="1951" 
d="M129 0v1024h358v-133q57 72 141.5 112.5t194.5 40.5q109 0 184.5 -45t116.5 -131q61 82 154.5 129t216.5 47q170 0 258 -101t88 -284v-659h-358v584q0 96 -38 133t-110 37q-170 0 -170 -191v-563h-358v584q0 96 -38 133t-110 37q-80 0 -125 -42t-47 -126v-586h-358z" />
    <glyph glyph-name="n" unicode="n" horiz-adv-x="1316" 
d="M129 0v1024h358v-111q115 131 322 131q180 0 288.5 -107.5t108.5 -295.5v-641h-358v567q0 186 -164 187q-78 0 -122 -37t-59.5 -82t-15.5 -76v-559h-358z" />
    <glyph glyph-name="o" unicode="o" horiz-adv-x="1286" 
d="M84 512q0 160 68.5 280.5t195.5 186t297 65.5t296 -65.5t193.5 -186t67.5 -280.5t-67.5 -280.5t-193.5 -186t-296 -65.5t-297 65.5t-195.5 186t-68.5 280.5zM442 512q0 -113 53.5 -177.5t149.5 -64.5q94 0 146.5 64.5t52.5 177.5t-52.5 177.5t-146.5 64.5
q-96 0 -149.5 -64.5t-53.5 -177.5z" />
    <glyph glyph-name="p" unicode="p" horiz-adv-x="1318" 
d="M129 -410v1434h358v-100q114 120 307 120h3q211 0 324.5 -138t113.5 -384q0 -262 -124 -402t-331 -140q-190 0 -293 116v-506h-358zM487 377q0 -106 177 -107q110 0 161.5 63.5t51.5 188.5q0 117 -45.5 174.5t-147.5 57.5q-82 0 -125 -31t-57.5 -64.5t-14.5 -48.5v-233z
" />
    <glyph glyph-name="q" unicode="q" horiz-adv-x="1318" 
d="M84 522q0 246 113.5 384t322.5 138q201 0 311 -120v100h359v-1434h-359v506q-101 -116 -293 -116h-3q-203 0 -327 140t-124 402zM442 522q0 -125 51.5 -188.5t161.5 -63.5q176 1 176 107v233q0 14 -14 48t-57 65t-125 31q-102 0 -147.5 -57.5t-45.5 -174.5z" />
    <glyph glyph-name="r" unicode="r" horiz-adv-x="937" 
d="M129 0v1024h358v-147q122 167 322 167h2q27 0 62.5 -3t52.5 -7l-41 -313q-23 6 -66 12t-86 6q-86 0 -159.5 -49t-86.5 -151v-539h-358z" />
    <glyph glyph-name="s" unicode="s" horiz-adv-x="1034" 
d="M66 705q0 339 447 339h3q98 0 188.5 -12t152 -27t56.5 -16l-43 -252q-2 0 -43 10.5t-122.5 21.5t-157.5 11q-129 0 -129 -32q0 -14 31.5 -26.5t148.5 -43.5q152 -39 261.5 -116t109.5 -234q0 -348 -482 -348q-145 0 -239 16t-178 39l41 270q12 -2 117.5 -29.5
t267.5 -27.5q74 0 98 8t24 31q0 20 -21.5 31.5t-88.5 27.5q-10 2 -80 21q-115 35 -189.5 71.5t-123.5 101t-49 165.5z" />
    <glyph glyph-name="t" unicode="t" horiz-adv-x="983" 
d="M45 731v293h168v307h358v-307h287v-293h-287v-225q0 -111 45.5 -155t159.5 -44h96v-307h-112q-283 0 -415 135t-132 357v239h-168z" />
    <glyph glyph-name="u" unicode="u" horiz-adv-x="1341" 
d="M111 354v670h358v-582q0 -96 40 -133t114 -37q164 0 174 174l-2 580h362v-649q0 -70 92 -70h60v-307h-115q-113 0 -190.5 43t-108.5 123q-47 -90 -153.5 -138t-239.5 -48q-197 0 -294 95t-97 279z" />
    <glyph glyph-name="v" unicode="v" horiz-adv-x="1284" 
d="M23 1024h370l250 -645l248 645h371l-435 -1024h-370z" />
    <glyph glyph-name="w" unicode="w" horiz-adv-x="2011" 
d="M33 1024h370l209 -655l209 655h369l209 -655l209 655h370l-387 -1024h-381l-204 588l-203 -588h-383z" />
    <glyph glyph-name="x" unicode="x" horiz-adv-x="1138" 
d="M10 0l375 518l-365 506h369l180 -254l181 254h368l-364 -506l374 -518h-368l-191 268l-190 -268h-369z" />
    <glyph glyph-name="y" unicode="y" horiz-adv-x="1267" 
d="M23 1024h368l242 -625l241 625h371l-393 -928l-41 -96h-4q-66 -150 -142.5 -238t-183 -130t-262.5 -42h-63v308h63q76 0 131.5 21.5t102.5 90.5z" />
    <glyph glyph-name="z" unicode="z" horiz-adv-x="1026" 
d="M78 731v293h870v-293h-2l-452 -438h446v-293h-854v293l453 438h-461z" />
    <glyph glyph-name="braceleft" unicode="{" horiz-adv-x="931" 
d="M111 543v266q57 0 97 8t70.5 45t30.5 115q0 37 -12 123q-20 111 -21 219q0 133 92.5 216t290.5 83h207v-268h-106q-66 0 -94.5 -25t-28.5 -82q0 -49 10 -97t12 -61q25 -102 25 -170q0 -104 -31.5 -166.5t-72.5 -72.5q41 -10 72.5 -72.5t31.5 -167.5q0 -68 -25 -170
q-2 -12 -12 -60t-10 -97q0 -57 28.5 -82t94.5 -25h106v-268h-207q-199 0 -291 83t-92 216q0 109 21 219q12 86 12 123q0 78 -30.5 114.5t-70.5 45t-97 8.5z" />
    <glyph glyph-name="bar" unicode="|" horiz-adv-x="1218" 
d="M442 -242v2003h334v-2003h-334z" />
    <glyph glyph-name="braceright" unicode="}" horiz-adv-x="931" 
d="M66 2h106q66 0 94.5 24.5t28.5 82.5q0 63 -23 157q-8 39 -15 83t-7 87q0 104 30.5 167t71.5 73q-41 10 -71.5 72.5t-30.5 166.5q0 43 7 87.5t15 82.5q23 94 23 158q0 57 -28.5 82t-94.5 25h-106v268h206q199 0 291 -83t92 -216q0 -109 -20 -219q-12 -86 -12 -123
q0 -78 30.5 -115t70.5 -45t97 -8v-266q-57 0 -97 -8.5t-70.5 -45t-30.5 -114.5q0 -37 12 -123q20 -111 20 -219q0 -133 -92 -216t-291 -83h-206v268z" />
    <glyph glyph-name="asciitilde" unicode="~" horiz-adv-x="1619" 
d="M176 700q12 6 72.5 44t139.5 60.5t167 22.5q53 0 115.5 -10t154.5 -31q63 -14 129 -25t109 -11q88 0 152.5 21.5t97.5 45.5l131 -192q-8 -6 -68.5 -44t-140.5 -60.5t-168 -22.5q-55 0 -117.5 10t-154.5 31q-63 14 -129 25t-109 11q-88 0 -152.5 -21.5t-97.5 -45.5z" />
    <glyph glyph-name="uni00A0" unicode="&#xa0;" horiz-adv-x="509" 
 />
    <glyph glyph-name="exclamdown" unicode="&#xa1;" horiz-adv-x="624" 
d="M113 1352q0 82 59 140t141 58t140.5 -58t58.5 -140t-58.5 -141.5t-140.5 -59.5t-141 59.5t-59 141.5zM131 0v549l49 491h264l50 -491v-549h-363z" />
    <glyph glyph-name="cent" unicode="&#xa2;" horiz-adv-x="1214" 
d="M176 516q0 227 109.5 358.5t318.5 161.5v293h250v-287q86 -4 178 -24l-37 -291q-84 27 -225 27q-119 0 -177 -56.5t-58 -189.5q0 -137 65.5 -188.5t202.5 -51.5q94 0 196 35l39 -280q-71 -33 -184 -39v-277h-250v283q-211 31 -319.5 165t-108.5 361z" />
    <glyph glyph-name="sterling" unicode="&#xa3;" horiz-adv-x="1454" 
d="M166 1100q0 125 65.5 227.5t194.5 162.5t315 60q174 0 317.5 -40t252.5 -105l-123 -266q-242 115 -424 114q-84 0 -136.5 -28.5t-72.5 -66.5t-20 -66q0 -43 13 -68t60 -76q82 -94 131 -157l27 -35h367v-269h-250q16 -81 16 -190h395v-297h-1118v297h359q-6 123 -29 190
h-309v269h129q-57 63 -89 106t-51.5 101.5t-19.5 136.5z" />
    <glyph glyph-name="currency" unicode="&#xa4;" horiz-adv-x="1464" 
d="M221 309l160 158q-53 84 -53 188t53 189l-160 157l178 177l170 -168q76 35 162 34q84 0 164 -34l172 168l176 -177l-158 -157q53 -90 54 -189q-1 -98 -54 -190l158 -156l-176 -178l-174 170q-78 -33 -162 -33q-82 0 -160 33l-172 -170zM582 651q0 -61 43 -105t106 -44
t108.5 44t45.5 105q0 66 -45 112t-109 46q-63 0 -106 -46t-43 -112z" />
    <glyph glyph-name="yen" unicode="&#xa5;" horiz-adv-x="1798" 
d="M176 1516h375l348 -637l348 637h375l-358 -637h102v-269h-254l-31 -53v-63h285v-267h-285v-227h-362v227h-289v267h289v63l-31 53h-258v269h107z" />
    <glyph glyph-name="brokenbar" unicode="&#xa6;" horiz-adv-x="1218" 
d="M442 -242v860h334v-860h-334zM442 963v798h334v-798h-334z" />
    <glyph glyph-name="section" unicode="&#xa7;" horiz-adv-x="1267" 
d="M176 768q0 84 33 137t102 90q-115 94 -114 232q0 158 113.5 240.5t287.5 82.5q106 0 227 -26.5t205 -65.5l-119 -239q-12 2 -101 27.5t-179 25.5q-86 0 -86 -39q0 -20 32.5 -45t131.5 -72q184 -88 283.5 -168t99.5 -180q0 -162 -136 -242q119 -98 119 -225
q0 -168 -114.5 -252t-286.5 -84q-129 0 -232.5 25.5t-193.5 79.5l119 239q47 -25 118.5 -45t147.5 -20q53 0 73.5 12t20.5 33q0 23 -44 51.5t-191 101.5q-139 70 -227.5 148t-88.5 178zM500 801q0 -21 44 -52.5t136 -72.5q88 8 88 59q0 20 -51 53t-146 72q-72 -12 -71 -59z
" />
    <glyph glyph-name="dieresis" unicode="&#xa8;" horiz-adv-x="1130" 
d="M102 1294q0 82 57.5 138.5t135.5 56.5q80 0 137 -56.5t57 -138.5q0 -80 -57 -137t-137 -57q-78 0 -135.5 57t-57.5 137zM641 1294q0 82 57.5 138.5t135.5 56.5q79 0 136.5 -56.5t57.5 -138.5q0 -80 -57.5 -137t-136.5 -57q-78 0 -135.5 57t-57.5 137z" />
    <glyph glyph-name="copyright" unicode="&#xa9;" horiz-adv-x="1976" 
d="M221 750q0 207 103.5 383t279.5 279.5t385 103.5q207 0 383 -103.5t279.5 -280t103.5 -382.5q0 -209 -103.5 -386.5t-279.5 -280.5t-383 -103q-209 0 -385 103t-279.5 280.5t-103.5 386.5zM348 750q0 -178 87 -329t233.5 -239t320.5 -88q172 0 319.5 88t233.5 239.5
t86 328.5q0 176 -86 326.5t-233.5 237.5t-319.5 87q-174 0 -320.5 -87t-233.5 -237.5t-87 -326.5zM604 745q0 199 108.5 302.5t313.5 103.5q116 0 229 -23l-22 -210q-74 25 -180 24q-195 0 -195 -203q0 -100 47 -149t133 -49q57 0 99.5 4t97.5 24l27 -200q-86 -37 -230 -37
q-209 0 -318.5 106.5t-109.5 306.5z" />
    <glyph glyph-name="ordfeminine" unicode="&#xaa;" horiz-adv-x="1179" 
d="M133 961q0 111 85 186.5t253 75.5q70 0 133 -15v27q0 37 -17.5 54.5t-68.5 17.5q-102 0 -260 -43l-65 235q80 23 180 37t180 14q176 0 280.5 -70.5t104.5 -219.5v-158q0 -35 5 -48.5t19.5 -16.5t53.5 -3h28v-291h-172q-143 0 -206 70q-80 -86 -238 -86q-133 0 -214 60.5
t-81 173.5zM455 967q0 -27 15 -45.5t42 -18.5q45 0 68.5 26.5t23.5 98.5q-40 8 -67 8q-35 0 -58.5 -18.5t-23.5 -50.5z" />
    <glyph glyph-name="guillemotleft" unicode="&#xab;" horiz-adv-x="1429" 
d="M176 633v65l369 461l178 -147l-225 -346l225 -347l-178 -147zM707 633v65l368 461l178 -147l-225 -346l225 -347l-178 -147z" />
    <glyph glyph-name="logicalnot" unicode="&#xac;" horiz-adv-x="1529" 
d="M176 528v289h1178v-696h-289v407h-889z" />
    <glyph glyph-name="uni00AD" unicode="&#xad;" horiz-adv-x="1007" 
d="M176 526v291h655v-291h-655z" />
    <glyph glyph-name="registered" unicode="&#xae;" horiz-adv-x="1976" 
d="M221 750q0 207 103.5 383t279.5 279.5t385 103.5q207 0 383 -103.5t279.5 -280t103.5 -382.5q0 -209 -103.5 -386.5t-279.5 -280.5t-383 -103q-209 0 -385 103t-279.5 280.5t-103.5 386.5zM348 750q0 -178 87 -329t233.5 -239t320.5 -88q172 0 318.5 88t232.5 238.5
t86 329.5q0 176 -86 325.5t-232.5 237.5t-318.5 88q-174 0 -320.5 -88t-233.5 -237.5t-87 -325.5zM664 360v779h368q186 0 257 -72t71 -197q0 -82 -30 -142t-103 -93l145 -275h-250l-118 240h-107v-240h-233zM897 793h135q37 0 57.5 21.5t20.5 59.5q0 74 -78 74h-135v-155z
" />
    <glyph glyph-name="macron" unicode="&#xaf;" horiz-adv-x="964" 
d="M102 1137v223h760v-223h-760z" />
    <glyph glyph-name="degree" unicode="&#xb0;" horiz-adv-x="1130" 
d="M176 1176q0 102 52.5 188t141.5 136t195 50q107 0 196 -50t141 -136t52 -188t-52 -188.5t-141 -136.5t-196 -50q-106 0 -195 50t-141.5 136t-52.5 189zM420 1176q0 -59 43 -103.5t102 -44.5q61 0 103.5 43t42.5 105q0 61 -42 104t-104 43q-59 0 -102 -43t-43 -104z" />
    <glyph glyph-name="plusminus" unicode="&#xb1;" horiz-adv-x="1531" 
d="M194 -6v289h1178v-289h-1178zM194 901v289h445v469h288v-469h445v-289h-445v-469h-288v469h-445z" />
    <glyph glyph-name="uni00B2" unicode="&#xb2;" horiz-adv-x="950" 
d="M133 1462q53 29 155.5 58.5t186.5 29.5q199 0 270.5 -70.5t71.5 -156.5q0 -80 -53 -133t-146 -109q-47 -29 -73.5 -49t-34.5 -41h295v-248h-668v111l2 2q14 129 83 204t177 142q49 31 71 49.5t22 36.5q0 16 -14.5 25.5t-39.5 9.5q-43 0 -97 -14.5t-144 -44.5z" />
    <glyph glyph-name="uni00B3" unicode="&#xb3;" horiz-adv-x="970" 
d="M133 786l72 215q106 -37 237 -36q53 0 73 15t20 42q0 45 -66 45l-166 -2v162h131q61 0 62 51q0 39 -66 39q-49 0 -109.5 -10.5t-101.5 -22.5l-61 211q94 29 161.5 42t137.5 13q162 0 254 -63.5t92 -167.5q0 -94 -64 -148q41 -24 70 -65t29 -115q0 -119 -111 -191.5
t-264 -72.5q-82 0 -156 12.5t-174 46.5z" />
    <glyph glyph-name="acute" unicode="&#xb4;" horiz-adv-x="765" 
d="M102 1135q25 31 33 43q225 287 293 342q57 53 104 53q49 0 95 -53q37 -45 37 -86q0 -53 -72 -111q-80 -70 -436 -252z" />
    <glyph glyph-name="paragraph" unicode="&#xb6;" horiz-adv-x="1916" 
d="M133 991q0 272 146.5 398.5t451.5 126.5h965v-1516h-363v1219h-194v-1219h-363v469h-45q-305 0 -451.5 126t-146.5 396zM512 991q0 -115 54.5 -170t164.5 -55h45v453h-45q-111 0 -165 -56.5t-54 -171.5z" />
    <glyph glyph-name="periodcentered" unicode="&#xb7;" horiz-adv-x="550" 
d="M78 776q0 82 57.5 140.5t138.5 58.5q82 0 140.5 -58.5t58.5 -140.5t-58.5 -139t-140.5 -57t-139 57t-57 139z" />
    <glyph glyph-name="cedilla" unicode="&#xb8;" horiz-adv-x="677" 
d="M102 -322l58 117q33 -18 67.5 -27.5t61.5 -9.5q31 0 50 15.5t19 46.5q0 61 -84 59l-16 21l57 100h172l-34 -63q122 -33 122 -154q0 -78 -61 -135.5t-182 -57.5q-68 0 -136.5 29t-93.5 59z" />
    <glyph glyph-name="uni00B9" unicode="&#xb9;" horiz-adv-x="927" 
d="M121 1454l317 62h213v-515h156v-258h-684v258h209v228l-162 8z" />
    <glyph glyph-name="ordmasculine" unicode="&#xba;" horiz-adv-x="1181" 
d="M133 1137q0 190 124 301.5t335 111.5t334 -111.5t123 -301.5q0 -188 -123 -299t-334 -111t-335 110.5t-124 299.5zM457 1137q0 -72 34.5 -111t100.5 -39t99.5 39t33.5 111q0 74 -34 112.5t-99 38.5q-66 0 -100.5 -39t-34.5 -112z" />
    <glyph glyph-name="guillemotright" unicode="&#xbb;" horiz-adv-x="1429" 
d="M176 319l225 347l-225 346l178 147l369 -461v-65l-369 -461zM707 319l225 347l-225 346l178 147l368 -461v-65l-368 -461z" />
    <glyph glyph-name="onequarter" unicode="&#xbc;" horiz-adv-x="2627" 
d="M229 1454l318 62h213v-515h155v-258h-684v258h209v228l-161 8zM659 0l963 1516h377l-963 -1516h-377zM1638 111v229l269 432h309l-252 -432h94v90h266v-90h82v-229h-82v-111h-266v111h-420z" />
    <glyph glyph-name="onehalf" unicode="&#xbd;" horiz-adv-x="2652" 
d="M230 1454l317 62h213v-515h156v-258h-684v258h209v228l-162 8zM659 0l963 1516h377l-963 -1516h-377zM1737 719q53 29 155.5 58.5t186.5 29.5q199 0 270.5 -70.5t71.5 -156.5q0 -80 -53 -133t-146 -109q-47 -29 -73.5 -49t-34.5 -41h295v-248h-668v111l2 2q14 129 83 204
t177 142q49 31 71 49.5t22 36.5q0 16 -14.5 25.5t-39.5 9.5q-43 0 -97 -14.5t-144 -44.5z" />
    <glyph glyph-name="threequarters" unicode="&#xbe;" horiz-adv-x="2656" 
d="M229 786l72 215q106 -37 238 -36q53 0 72.5 15t19.5 42q0 45 -66 45l-166 -2v162h131q61 0 62 51q0 39 -66 39q-49 0 -109.5 -10.5t-101.5 -22.5l-61 211q94 29 161.5 42t137.5 13q162 0 254 -63.5t92 -167.5q0 -94 -63 -148q41 -24 69.5 -65t28.5 -115
q0 -119 -110.5 -191.5t-264.5 -72.5q-82 0 -155.5 12.5t-174.5 46.5zM688 0l963 1516h377l-963 -1516h-377zM1667 111v229l268 432h310l-252 -432h94v90h266v-90h82v-229h-82v-111h-266v111h-420z" />
    <glyph glyph-name="questiondown" unicode="&#xbf;" horiz-adv-x="1341" 
d="M111 -41q0 80 25.5 140.5t91 115.5t184.5 115q111 53 149.5 78.5t50 60.5t11.5 121h344q0 -168 -15.5 -236.5t-68 -113.5t-197.5 -119q-96 -49 -131 -68.5t-50.5 -42t-15.5 -59.5q0 -39 50.5 -71t173.5 -32q111 0 202 27t187 74l129 -258q-131 -74 -263 -107t-280 -33
q-282 0 -429.5 111t-147.5 297zM592 938q0 82 59.5 141.5t141.5 59.5t140 -59.5t58 -141.5t-58.5 -140.5t-139.5 -58.5q-82 0 -141.5 58.5t-59.5 140.5z" />
    <glyph glyph-name="Agrave" unicode="&#xc0;" 
d="M10 0l629 1516h352l629 -1516h-385l-119 301h-602l-119 -301h-385zM467 1987q0 41 37 86q45 53 94 53q47 0 105 -53q68 -55 293 -342q8 -12 33 -43l-54 -64q-106 53 -245.5 131t-190.5 121q-72 57 -72 111zM631 598h368l-184 469z" />
    <glyph glyph-name="Aacute" unicode="&#xc1;" 
d="M10 0l629 1516h352l629 -1516h-385l-119 301h-602l-119 -301h-385zM606 1688q25 31 33 43q225 287 293 342q57 53 104 53q49 0 95 -53q37 -45 37 -86q0 -53 -72 -111q-80 -70 -436 -252zM631 598h368l-184 469z" />
    <glyph glyph-name="Acircumflex" unicode="&#xc2;" 
d="M10 0l629 1516h352l629 -1516h-385l-119 301h-602l-119 -301h-385zM340 1798l400 230h149l400 -230l-97 -153l-374 153l-381 -153zM631 598h368l-184 469z" />
    <glyph glyph-name="Atilde" unicode="&#xc3;" 
d="M10 0l629 1516h352l629 -1516h-385l-119 301h-602l-119 -301h-385zM319 1856q72 70 149 113.5t150 43.5q64 0 211 -41q49 -14 98.5 -25.5t80.5 -11.5q68 0 113.5 20.5t84.5 47.5l103 -133q-70 -68 -149 -113t-150 -45q-63 0 -211 41q-49 14 -97.5 25.5t-78.5 11.5
q-106 0 -201 -68zM631 598h368l-184 469z" />
    <glyph glyph-name="Adieresis" unicode="&#xc4;" 
d="M10 0l629 1516h352l629 -1516h-385l-119 301h-602l-119 -301h-385zM352 1847q0 82 57.5 138.5t135.5 56.5q80 0 137 -56.5t57 -138.5q0 -80 -57 -137t-137 -57q-78 0 -135.5 57t-57.5 137zM631 598h368l-184 469zM891 1847q0 82 57.5 138.5t135.5 56.5q79 0 136.5 -56.5
t57.5 -138.5q0 -80 -57.5 -137t-136.5 -57q-78 0 -135.5 57t-57.5 137z" />
    <glyph glyph-name="Aring" unicode="&#xc5;" 
d="M10 0l629 1516h352l629 -1516h-385l-119 301h-602l-119 -301h-385zM530 1966q0 78 38 143.5t104.5 103.5t144.5 38t143.5 -38t103.5 -103.5t38 -143.5t-38 -144.5t-103.5 -104.5t-143.5 -38t-144.5 38t-104.5 104.5t-38 144.5zM631 598h368l-184 469zM719 1966
q0 -43 28.5 -72.5t71.5 -29.5q41 0 68.5 29.5t27.5 72.5q0 41 -28.5 72t-67.5 31q-43 0 -71.5 -30t-28.5 -73z" />
    <glyph glyph-name="AE" unicode="&#xc6;" horiz-adv-x="2328" 
d="M0 0l991 1516h1204v-297h-651v-279h613v-297h-613v-346h674v-297h-1036v342h-570l-217 -342h-395zM801 639h381v602z" />
    <glyph glyph-name="Ccedilla" unicode="&#xc7;" horiz-adv-x="1382" 
d="M106 752q0 254 92.5 434t264.5 272t407 92q98 0 182.5 -13t135.5 -28.5t63 -19.5l-53 -291q-10 4 -52 14.5t-104.5 19.5t-128.5 9q-428 0 -428 -489q0 -236 105.5 -357t347.5 -121q74 0 142.5 9.5t111.5 19.5t55 14l51 -294q-14 -4 -67 -18.5t-139 -27t-185 -12.5h-8
l-16 -28q123 -33 123 -154q0 -78 -61.5 -135.5t-182.5 -57.5q-68 0 -136.5 29t-93.5 59l58 117q33 -18 67.5 -27.5t61.5 -9.5q31 0 50 15.5t19 46.5q0 61 -83 59l-17 21l45 77q-307 43 -467 243t-160 532z" />
    <glyph glyph-name="Egrave" unicode="&#xc8;" horiz-adv-x="1292" 
d="M145 0v1516h1014v-297h-651v-279h612v-297h-612v-346h674v-297h-1037zM313 1987q0 41 37 86q45 53 94 53q47 0 105 -53q68 -55 293 -342q8 -12 33 -43l-54 -64q-106 53 -245.5 131t-190.5 121q-72 57 -72 111z" />
    <glyph glyph-name="Eacute" unicode="&#xc9;" horiz-adv-x="1292" 
d="M145 0v1516h1014v-297h-651v-279h612v-297h-612v-346h674v-297h-1037zM452 1688q25 31 33 43q225 287 293 342q57 53 104 53q49 0 95 -53q37 -45 37 -86q0 -53 -72 -111q-80 -70 -436 -252z" />
    <glyph glyph-name="Ecircumflex" unicode="&#xca;" horiz-adv-x="1292" 
d="M145 0v1516h1014v-297h-651v-279h612v-297h-612v-346h674v-297h-1037zM186 1798l400 230h149l400 -230l-97 -153l-374 153l-381 -153z" />
    <glyph glyph-name="Edieresis" unicode="&#xcb;" horiz-adv-x="1292" 
d="M145 0v1516h1014v-297h-651v-279h612v-297h-612v-346h674v-297h-1037zM198 1847q0 82 57.5 138.5t135.5 56.5q80 0 137 -56.5t57 -138.5q0 -80 -57 -137t-137 -57q-78 0 -135.5 57t-57.5 137zM737 1847q0 82 57.5 138.5t135.5 56.5q79 0 136.5 -56.5t57.5 -138.5
q0 -80 -57.5 -137t-136.5 -57q-78 0 -135.5 57t-57.5 137z" />
    <glyph glyph-name="Igrave" unicode="&#xcc;" horiz-adv-x="653" 
d="M-23 1987q0 41 37 86q45 53 94 53q47 0 105 -53q68 -55 293 -342q8 -12 33 -43l-54 -64q-106 53 -245.5 131t-190.5 121q-72 57 -72 111zM145 0v1516h363v-1516h-363z" />
    <glyph glyph-name="Iacute" unicode="&#xcd;" horiz-adv-x="653" 
d="M116 1688q25 31 33 43q225 287 293 342q57 53 104 53q49 0 95 -53q37 -45 37 -86q0 -53 -72 -111q-80 -70 -436 -252zM145 0v1516h363v-1516h-363z" />
    <glyph glyph-name="Icircumflex" unicode="&#xce;" horiz-adv-x="653" 
d="M-150 1798l400 230h149l400 -230l-97 -153l-374 153l-381 -153zM145 0v1516h363v-1516h-363z" />
    <glyph glyph-name="Idieresis" unicode="&#xcf;" horiz-adv-x="653" 
d="M-138 1847q0 82 57.5 138.5t135.5 56.5q80 0 137 -56.5t57 -138.5q0 -80 -57 -137t-137 -57q-78 0 -135.5 57t-57.5 137zM145 0v1516h363v-1516h-363zM401 1847q0 82 57.5 138.5t135.5 56.5q79 0 136.5 -56.5t57.5 -138.5q0 -80 -57.5 -137t-136.5 -57q-78 0 -135.5 57
t-57.5 137z" />
    <glyph glyph-name="Eth" unicode="&#xd0;" horiz-adv-x="1691" 
d="M45 621v290h125v605h635q391 0 585.5 -187.5t194.5 -570.5q0 -385 -194.5 -571.5t-585.5 -186.5h-635v621h-125zM532 297h273q145 0 232 45t128 145.5t41 270.5t-41 270t-128 145.5t-232 45.5h-273v-308h392v-290h-392v-324z" />
    <glyph glyph-name="Ntilde" unicode="&#xd1;" horiz-adv-x="1583" 
d="M145 0v1516h363l567 -900v900h363v-1516h-363v4l-567 870v-874h-363zM295 1856q72 70 149 113.5t150 43.5q64 0 211 -41q49 -14 98.5 -25.5t80.5 -11.5q68 0 113.5 20.5t84.5 47.5l103 -133q-70 -68 -149 -113t-150 -45q-63 0 -211 41q-49 14 -97.5 25.5t-78.5 11.5
q-106 0 -201 -68z" />
    <glyph glyph-name="Ograve" unicode="&#xd2;" horiz-adv-x="1796" 
d="M106 758q0 233 98.5 412.5t279 279.5t415.5 100q236 0 415 -100t277.5 -279.5t98.5 -412.5t-98.5 -412.5t-277.5 -280t-415 -100.5t-416 100.5t-278.5 279.5t-98.5 413zM485 758q0 -141 51.5 -251t145.5 -171.5t217 -61.5t217 61.5t145.5 171t51.5 251.5
q0 141 -51.5 250.5t-145.5 171t-217 61.5t-217 -61.5t-145.5 -171t-51.5 -250.5zM548 1987q0 41 37 86q45 53 94 53q47 0 105 -53q68 -55 293 -342q8 -12 33 -43l-54 -64q-106 53 -245.5 131t-190.5 121q-72 57 -72 111z" />
    <glyph glyph-name="Oacute" unicode="&#xd3;" horiz-adv-x="1796" 
d="M106 758q0 233 98.5 412.5t279 279.5t415.5 100q236 0 415 -100t277.5 -279.5t98.5 -412.5t-98.5 -412.5t-277.5 -280t-415 -100.5t-416 100.5t-278.5 279.5t-98.5 413zM485 758q0 -141 51.5 -251t145.5 -171.5t217 -61.5t217 61.5t145.5 171t51.5 251.5
q0 141 -51.5 250.5t-145.5 171t-217 61.5t-217 -61.5t-145.5 -171t-51.5 -250.5zM688 1688q25 31 33 43q225 287 293 342q57 53 104 53q49 0 95 -53q37 -45 37 -86q0 -53 -72 -111q-80 -70 -436 -252z" />
    <glyph glyph-name="Ocircumflex" unicode="&#xd4;" horiz-adv-x="1796" 
d="M106 758q0 233 98.5 412.5t279 279.5t415.5 100q236 0 415 -100t277.5 -279.5t98.5 -412.5t-98.5 -412.5t-277.5 -280t-415 -100.5t-416 100.5t-278.5 279.5t-98.5 413zM421 1798l400 230h149l400 -230l-97 -153l-374 153l-381 -153zM485 758q0 -141 51.5 -251
t145.5 -171.5t217 -61.5t217 61.5t145.5 171t51.5 251.5q0 141 -51.5 250.5t-145.5 171t-217 61.5t-217 -61.5t-145.5 -171t-51.5 -250.5z" />
    <glyph glyph-name="Otilde" unicode="&#xd5;" horiz-adv-x="1796" 
d="M106 758q0 233 98.5 412.5t279 279.5t415.5 100q236 0 415 -100t277.5 -279.5t98.5 -412.5t-98.5 -412.5t-277.5 -280t-415 -100.5t-416 100.5t-278.5 279.5t-98.5 413zM401 1856q72 70 149 113.5t150 43.5q64 0 211 -41q49 -14 98.5 -25.5t80.5 -11.5q68 0 113.5 20.5
t84.5 47.5l103 -133q-70 -68 -149 -113t-150 -45q-63 0 -211 41q-49 14 -97.5 25.5t-78.5 11.5q-106 0 -201 -68zM485 758q0 -141 51.5 -251t145.5 -171.5t217 -61.5t217 61.5t145.5 171t51.5 251.5q0 141 -51.5 250.5t-145.5 171t-217 61.5t-217 -61.5t-145.5 -171
t-51.5 -250.5z" />
    <glyph glyph-name="Odieresis" unicode="&#xd6;" horiz-adv-x="1796" 
d="M106 758q0 233 98.5 412.5t279 279.5t415.5 100q236 0 415 -100t277.5 -279.5t98.5 -412.5t-98.5 -412.5t-277.5 -280t-415 -100.5t-416 100.5t-278.5 279.5t-98.5 413zM434 1847q0 82 57.5 138.5t135.5 56.5q80 0 137 -56.5t57 -138.5q0 -80 -57 -137t-137 -57
q-78 0 -135.5 57t-57.5 137zM485 758q0 -141 51.5 -251t145.5 -171.5t217 -61.5t217 61.5t145.5 171t51.5 251.5q0 141 -51.5 250.5t-145.5 171t-217 61.5t-217 -61.5t-145.5 -171t-51.5 -250.5zM973 1847q0 82 57.5 138.5t135.5 56.5q79 0 136.5 -56.5t57.5 -138.5
q0 -80 -57.5 -137t-136.5 -57q-78 0 -135.5 57t-57.5 137z" />
    <glyph glyph-name="multiply" unicode="&#xd7;" horiz-adv-x="1568" 
d="M221 293l369 369l-369 366l195 197l368 -369l369 369l195 -197l-367 -366l367 -369l-195 -197l-369 369l-368 -369z" />
    <glyph glyph-name="Oslash" unicode="&#xd8;" horiz-adv-x="1792" 
d="M106 758q0 233 98.5 412.5t279 279.5t415.5 100q115 0 217 -24l62 123h335l-122 -248q143 -105 221 -270.5t78 -372.5q0 -233 -98.5 -412.5t-277.5 -280t-415 -100.5q-115 0 -217 25l-61 -123h-334l123 246q-145 104 -224.5 271t-79.5 374zM485 758q0 -185 88 -316
l398 793q-33 6 -72 6q-123 0 -217 -61.5t-145.5 -171t-51.5 -250.5zM827 281q35 -6 72 -7q123 0 217 61.5t145.5 171t51.5 251.5q0 190 -88 315z" />
    <glyph glyph-name="Ugrave" unicode="&#xd9;" horiz-adv-x="1607" 
d="M143 616q0 -301 157 -476t507 -175q346 0 501.5 175t155.5 476v900h-362v-900q0 -145 -36 -219.5t-98.5 -98.5t-160.5 -24q-102 0 -165.5 24t-99.5 97.5t-36 220.5v900h-363v-900zM460 1987q0 41 37 86q45 53 94 53q47 0 105 -53q68 -55 293 -342q8 -12 33 -43l-54 -64
q-106 53 -245.5 131t-190.5 121q-72 57 -72 111z" />
    <glyph glyph-name="Uacute" unicode="&#xda;" horiz-adv-x="1607" 
d="M143 616q0 -301 157 -476t507 -175q346 0 501.5 175t155.5 476v900h-362v-900q0 -145 -36 -219.5t-98.5 -98.5t-160.5 -24q-102 0 -165.5 24t-99.5 97.5t-36 220.5v900h-363v-900zM600 1688q25 31 33 43q225 287 293 342q57 53 104 53q49 0 95 -53q37 -45 37 -86
q0 -53 -72 -111q-80 -70 -436 -252z" />
    <glyph glyph-name="Ucircumflex" unicode="&#xdb;" horiz-adv-x="1607" 
d="M143 616q0 -301 157 -476t507 -175q346 0 501.5 175t155.5 476v900h-362v-900q0 -145 -36 -219.5t-98.5 -98.5t-160.5 -24q-102 0 -165.5 24t-99.5 97.5t-36 220.5v900h-363v-900zM333 1798l400 230h149l400 -230l-97 -153l-374 153l-381 -153z" />
    <glyph glyph-name="Udieresis" unicode="&#xdc;" horiz-adv-x="1607" 
d="M143 616q0 -301 157 -476t507 -175q346 0 501.5 175t155.5 476v900h-362v-900q0 -145 -36 -219.5t-98.5 -98.5t-160.5 -24q-102 0 -165.5 24t-99.5 97.5t-36 220.5v900h-363v-900zM346 1847q0 82 57.5 138.5t135.5 56.5q80 0 137 -56.5t57 -138.5q0 -80 -57 -137
t-137 -57q-78 0 -135.5 57t-57.5 137zM885 1847q0 82 57.5 138.5t135.5 56.5q79 0 136.5 -56.5t57.5 -138.5q0 -80 -57.5 -137t-136.5 -57q-78 0 -135.5 57t-57.5 137z" />
    <glyph glyph-name="Yacute" unicode="&#xdd;" horiz-adv-x="1445" 
d="M0 1516h389l334 -631l334 631h389l-541 -959v-557h-362v557zM514 1688q25 31 33 43q225 287 293 342q57 53 104 53q49 0 95 -53q37 -45 37 -86q0 -53 -72 -111q-80 -70 -436 -252z" />
    <glyph glyph-name="Thorn" unicode="&#xde;" horiz-adv-x="1505" 
d="M145 0v1516h363v-166h332q305 0 452.5 -127t147.5 -398q0 -270 -147.5 -396t-452.5 -126h-332v-303h-363zM508 600h332q112 0 166.5 55.5t54.5 169.5q0 115 -54.5 171.5t-166.5 56.5h-332v-453z" />
    <glyph glyph-name="germandbls" unicode="&#xdf;" horiz-adv-x="1370" 
d="M129 0v965q0 297 123 434t401 137q295 0 424 -134t129 -329l-32 -233q-27 12 -84.5 29.5t-108.5 17.5q-113 0 -113 -64q0 -25 34 -54.5t136 -94.5q88 -56 137.5 -94.5t89.5 -101t40 -146.5q0 -78 -36 -157t-134.5 -137t-270.5 -58q-115 0 -181.5 13t-119.5 32l45 268
q6 -2 68.5 -19.5t154.5 -17.5q121 0 121 59q0 25 -26.5 47.5t-106.5 73.5q-106 70 -163.5 117t-91.5 108.5t-34 145.5q0 154 93.5 236.5t238.5 82.5h25q0 18 -23.5 46t-73 49.5t-122.5 21.5q-86 0 -125 -42t-47.5 -94t-8.5 -130v-977h-358z" />
    <glyph glyph-name="agrave" unicode="&#xe0;" horiz-adv-x="1261" 
d="M66 289q0 150 118.5 230.5t333.5 80.5q104 0 207 -25v80q0 84 -47 111t-133 27q-150 0 -332 -48l-66 230q96 31 215 50t234 19q229 0 358 -93t129 -296v-243q0 -47 8.5 -67.5t31 -27t73.5 -6.5h33v-311h-176q-78 0 -136.5 33t-91.5 76q-51 -61 -139 -95t-209 -34
q-195 0 -303 79.5t-108 229.5zM256 1495q0 41 37 86q45 53 94 53q47 0 105 -53q68 -55 293 -342q8 -12 33 -43l-54 -64q-106 53 -245.5 131t-190.5 121q-72 57 -72 111zM410 297q0 -51 33.5 -85t97.5 -34q71 0 127.5 34t56.5 148v48q-86 23 -141 22q-84 0 -129 -37t-45 -96z
" />
    <glyph glyph-name="aacute" unicode="&#xe1;" horiz-adv-x="1261" 
d="M66 289q0 150 118.5 230.5t333.5 80.5q104 0 207 -25v80q0 84 -47 111t-133 27q-150 0 -332 -48l-66 230q96 31 215 50t234 19q229 0 358 -93t129 -296v-243q0 -47 8.5 -67.5t31 -27t73.5 -6.5h33v-311h-176q-78 0 -136.5 33t-91.5 76q-51 -61 -139 -95t-209 -34
q-195 0 -303 79.5t-108 229.5zM395 1196q25 31 33 43q225 287 293 342q57 53 104 53q49 0 95 -53q37 -45 37 -86q0 -53 -72 -111q-80 -70 -436 -252zM410 297q0 -51 33.5 -85t97.5 -34q71 0 127.5 34t56.5 148v48q-86 23 -141 22q-84 0 -129 -37t-45 -96z" />
    <glyph glyph-name="acircumflex" unicode="&#xe2;" horiz-adv-x="1261" 
d="M66 289q0 150 118.5 230.5t333.5 80.5q104 0 207 -25v80q0 84 -47 111t-133 27q-150 0 -332 -48l-66 230q96 31 215 50t234 19q229 0 358 -93t129 -296v-243q0 -47 8.5 -67.5t31 -27t73.5 -6.5h33v-311h-176q-78 0 -136.5 33t-91.5 76q-51 -61 -139 -95t-209 -34
q-195 0 -303 79.5t-108 229.5zM129 1306l400 230h149l400 -230l-97 -153l-374 153l-381 -153zM410 297q0 -51 33.5 -85t97.5 -34q71 0 127.5 34t56.5 148v48q-86 23 -141 22q-84 0 -129 -37t-45 -96z" />
    <glyph glyph-name="atilde" unicode="&#xe3;" horiz-adv-x="1261" 
d="M66 289q0 150 118.5 230.5t333.5 80.5q104 0 207 -25v80q0 84 -47 111t-133 27q-150 0 -332 -48l-66 230q96 31 215 50t234 19q229 0 358 -93t129 -296v-243q0 -47 8.5 -67.5t31 -27t73.5 -6.5h33v-311h-176q-78 0 -136.5 33t-91.5 76q-51 -61 -139 -95t-209 -34
q-195 0 -303 79.5t-108 229.5zM108 1364q72 70 149 113.5t150 43.5q64 0 211 -41q49 -14 98.5 -25.5t80.5 -11.5q68 0 113.5 20.5t84.5 47.5l103 -133q-70 -68 -149 -113t-150 -45q-63 0 -211 41q-49 14 -97.5 25.5t-78.5 11.5q-106 0 -201 -68zM410 297q0 -51 33.5 -85
t97.5 -34q71 0 127.5 34t56.5 148v48q-86 23 -141 22q-84 0 -129 -37t-45 -96z" />
    <glyph glyph-name="adieresis" unicode="&#xe4;" horiz-adv-x="1261" 
d="M66 289q0 150 118.5 230.5t333.5 80.5q104 0 207 -25v80q0 84 -47 111t-133 27q-150 0 -332 -48l-66 230q96 31 215 50t234 19q229 0 358 -93t129 -296v-243q0 -47 8.5 -67.5t31 -27t73.5 -6.5h33v-311h-176q-78 0 -136.5 33t-91.5 76q-51 -61 -139 -95t-209 -34
q-195 0 -303 79.5t-108 229.5zM141 1355q0 82 57.5 138.5t135.5 56.5q80 0 137 -56.5t57 -138.5q0 -80 -57 -137t-137 -57q-78 0 -135.5 57t-57.5 137zM410 297q0 -51 33.5 -85t97.5 -34q71 0 127.5 34t56.5 148v48q-86 23 -141 22q-84 0 -129 -37t-45 -96zM680 1355
q0 82 57.5 138.5t135.5 56.5q79 0 136.5 -56.5t57.5 -138.5q0 -80 -57.5 -137t-136.5 -57q-78 0 -135.5 57t-57.5 137z" />
    <glyph glyph-name="aring" unicode="&#xe5;" horiz-adv-x="1261" 
d="M66 289q0 150 118.5 230.5t333.5 80.5q104 0 207 -25v80q0 84 -47 111t-133 27q-150 0 -332 -48l-66 230q96 31 215 50t234 19q229 0 358 -93t129 -296v-243q0 -47 8.5 -67.5t31 -27t73.5 -6.5h33v-311h-176q-78 0 -136.5 33t-91.5 76q-51 -61 -139 -95t-209 -34
q-195 0 -303 79.5t-108 229.5zM319 1474q0 78 38 143.5t104.5 103.5t144.5 38t143.5 -38t103.5 -103.5t38 -143.5t-38 -144.5t-103.5 -104.5t-143.5 -38t-144.5 38t-104.5 104.5t-38 144.5zM410 297q0 -51 33.5 -85t97.5 -34q71 0 127.5 34t56.5 148v48q-86 23 -141 22
q-84 0 -129 -37t-45 -96zM508 1474q0 -43 28.5 -72.5t71.5 -29.5q41 0 68.5 29.5t27.5 72.5q0 41 -28.5 72t-67.5 31q-43 0 -71.5 -30t-28.5 -73z" />
    <glyph glyph-name="ae" unicode="&#xe6;" horiz-adv-x="1859" 
d="M66 289q0 145 114.5 228t337.5 83q104 0 207 -22v67q0 68 -20.5 101.5t-54.5 42t-89 8.5q-197 0 -344 -47l-74 225q94 31 214 50t233 19q227 0 348 -83q127 84 330 83q241 0 374.5 -124.5t133.5 -358.5v-45q0 -47 -7 -104h-688q10 -92 68.5 -134t202.5 -42q76 0 176 9
t151 23l43 -243q-82 -20 -199.5 -32.5t-207.5 -12.5q-297 0 -443 133q-115 -133 -415 -133q-180 0 -285.5 79.5t-105.5 229.5zM410 297q0 -51 33.5 -85t95.5 -34q71 0 126.5 40t59.5 188q-74 18 -141 18q-84 0 -129 -33t-45 -94zM1079 588h385v33q0 72 -48 110.5t-132 38.5
q-110 0 -154.5 -47t-50.5 -135z" />
    <glyph glyph-name="ccedilla" unicode="&#xe7;" horiz-adv-x="1024" 
d="M84 516q0 262 143.5 395t417.5 133q74 0 139.5 -7t105.5 -15l50 -10l-43 -281q-16 4 -76.5 13.5t-128.5 9.5q-133 0 -191.5 -57.5t-58.5 -186.5q0 -131 69 -190.5t187 -59.5q115 0 203 33l45 -270q-98 -39 -256 -43l-24 -43q122 -33 122 -154q0 -78 -61 -135.5
t-182 -57.5q-68 0 -136.5 29t-93.5 59l58 117q33 -18 67.5 -27.5t61.5 -9.5q31 0 50 15.5t19 46.5q0 61 -84 59l-16 21l51 88q-219 31 -328.5 165t-109.5 363z" />
    <glyph glyph-name="egrave" unicode="&#xe8;" horiz-adv-x="1216" 
d="M84 504q0 258 139 399t402 141q241 0 374.5 -124.5t133.5 -358.5v-45q0 -45 -7 -104h-688q10 -92 68.5 -134t202.5 -42q76 0 176 9t151 23l43 -243q-82 -20 -199.5 -32.5t-207.5 -12.5q-588 0 -588 524zM274 1495q0 41 37 86q45 53 94 53q47 0 105 -53q68 -55 293 -342
q8 -12 33 -43l-54 -64q-106 53 -245.5 131t-190.5 121q-72 57 -72 111zM436 588h385v33q0 72 -48 110.5t-132 38.5q-111 0 -155 -47t-50 -135z" />
    <glyph glyph-name="eacute" unicode="&#xe9;" horiz-adv-x="1216" 
d="M84 504q0 258 139 399t402 141q241 0 374.5 -124.5t133.5 -358.5v-45q0 -45 -7 -104h-688q10 -92 68.5 -134t202.5 -42q76 0 176 9t151 23l43 -243q-82 -20 -199.5 -32.5t-207.5 -12.5q-588 0 -588 524zM413 1196q25 31 33 43q225 287 293 342q57 53 104 53q49 0 95 -53
q37 -45 37 -86q0 -53 -72 -111q-80 -70 -436 -252zM436 588h385v33q0 72 -48 110.5t-132 38.5q-111 0 -155 -47t-50 -135z" />
    <glyph glyph-name="ecircumflex" unicode="&#xea;" horiz-adv-x="1216" 
d="M84 504q0 258 139 399t402 141q241 0 374.5 -124.5t133.5 -358.5v-45q0 -45 -7 -104h-688q10 -92 68.5 -134t202.5 -42q76 0 176 9t151 23l43 -243q-82 -20 -199.5 -32.5t-207.5 -12.5q-588 0 -588 524zM147 1306l400 230h149l400 -230l-97 -153l-374 153l-381 -153z
M436 588h385v33q0 72 -48 110.5t-132 38.5q-111 0 -155 -47t-50 -135z" />
    <glyph glyph-name="edieresis" unicode="&#xeb;" horiz-adv-x="1216" 
d="M84 504q0 258 139 399t402 141q241 0 374.5 -124.5t133.5 -358.5v-45q0 -45 -7 -104h-688q10 -92 68.5 -134t202.5 -42q76 0 176 9t151 23l43 -243q-82 -20 -199.5 -32.5t-207.5 -12.5q-588 0 -588 524zM159 1355q0 82 57.5 138.5t135.5 56.5q80 0 137 -56.5t57 -138.5
q0 -80 -57 -137t-137 -57q-78 0 -135.5 57t-57.5 137zM436 588h385v33q0 72 -48 110.5t-132 38.5q-111 0 -155 -47t-50 -135zM698 1355q0 82 57.5 138.5t135.5 56.5q79 0 136.5 -56.5t57.5 -138.5q0 -80 -57.5 -137t-136.5 -57q-78 0 -135.5 57t-57.5 137z" />
    <glyph glyph-name="igrave" unicode="&#xec;" horiz-adv-x="616" 
d="M-41 1495q0 41 37 86q45 53 94 53q47 0 105 -53q68 -55 293 -342q8 -12 33 -43l-54 -64q-106 53 -245.5 131t-190.5 121q-72 57 -72 111zM129 0v1024h358v-1024h-358z" />
    <glyph glyph-name="iacute" unicode="&#xed;" horiz-adv-x="616" 
d="M98 1196q25 31 33 43q225 287 293 342q57 53 104 53q49 0 95 -53q37 -45 37 -86q0 -53 -72 -111q-80 -70 -436 -252zM129 0v1024h358v-1024h-358z" />
    <glyph glyph-name="icircumflex" unicode="&#xee;" horiz-adv-x="616" 
d="M-168 1306l400 230h149l400 -230l-97 -153l-374 153l-381 -153zM129 0v1024h358v-1024h-358z" />
    <glyph glyph-name="idieresis" unicode="&#xef;" horiz-adv-x="616" 
d="M-156 1355q0 82 57.5 138.5t135.5 56.5q80 0 137 -56.5t57 -138.5q0 -80 -57 -137t-137 -57q-78 0 -135.5 57t-57.5 137zM129 0v1024h358v-1024h-358zM383 1355q0 82 57.5 138.5t135.5 56.5q79 0 136.5 -56.5t57.5 -138.5q0 -80 -57.5 -137t-136.5 -57q-78 0 -135.5 57
t-57.5 137z" />
    <glyph glyph-name="eth" unicode="&#xf0;" horiz-adv-x="1288" 
d="M84 502q0 154 69.5 272.5t185.5 184t249 65.5q86 0 146.5 -17.5t84.5 -31.5q-12 145 -117 244l-200 -150l-123 166l117 88q-57 10 -111 10h-51l-10 211q8 2 40.5 4t77.5 2q145 0 281 -57l160 121l123 -168l-97 -72q129 -114 204 -299.5t75 -443.5q0 -324 -144.5 -487.5
t-408.5 -163.5q-168 0 -292 64.5t-191.5 183t-67.5 274.5zM442 502q0 -106 50.5 -169t142.5 -63q90 0 140 62.5t50 169.5q0 106 -50 168.5t-140 62.5q-92 0 -142.5 -62.5t-50.5 -168.5z" />
    <glyph glyph-name="ntilde" unicode="&#xf1;" horiz-adv-x="1316" 
d="M129 0v1024h358v-111q115 131 322 131q180 0 288.5 -107.5t108.5 -295.5v-641h-358v567q0 186 -164 187q-78 0 -122 -37t-59.5 -82t-15.5 -76v-559h-358zM168 1364q72 70 149 113.5t150 43.5q64 0 211 -41q49 -14 98.5 -25.5t80.5 -11.5q68 0 113.5 20.5t84.5 47.5
l103 -133q-70 -68 -149 -113t-150 -45q-63 0 -211 41q-49 14 -97.5 25.5t-78.5 11.5q-106 0 -201 -68z" />
    <glyph glyph-name="ograve" unicode="&#xf2;" horiz-adv-x="1286" 
d="M84 512q0 160 68.5 280.5t195.5 186t297 65.5t296 -65.5t193.5 -186t67.5 -280.5t-67.5 -280.5t-193.5 -186t-296 -65.5t-297 65.5t-195.5 186t-68.5 280.5zM292 1495q0 41 37 86q45 53 94 53q47 0 105 -53q68 -55 293 -342q8 -12 33 -43l-54 -64q-106 53 -245.5 131
t-190.5 121q-72 57 -72 111zM442 512q0 -113 53.5 -177.5t149.5 -64.5q94 0 146.5 64.5t52.5 177.5t-52.5 177.5t-146.5 64.5q-96 0 -149.5 -64.5t-53.5 -177.5z" />
    <glyph glyph-name="oacute" unicode="&#xf3;" horiz-adv-x="1286" 
d="M84 512q0 160 68.5 280.5t195.5 186t297 65.5t296 -65.5t193.5 -186t67.5 -280.5t-67.5 -280.5t-193.5 -186t-296 -65.5t-297 65.5t-195.5 186t-68.5 280.5zM432 1196q25 31 33 43q225 287 293 342q57 53 104 53q49 0 95 -53q37 -45 37 -86q0 -53 -72 -111
q-80 -70 -436 -252zM442 512q0 -113 53.5 -177.5t149.5 -64.5q94 0 146.5 64.5t52.5 177.5t-52.5 177.5t-146.5 64.5q-96 0 -149.5 -64.5t-53.5 -177.5z" />
    <glyph glyph-name="ocircumflex" unicode="&#xf4;" horiz-adv-x="1286" 
d="M84 512q0 160 68.5 280.5t195.5 186t297 65.5t296 -65.5t193.5 -186t67.5 -280.5t-67.5 -280.5t-193.5 -186t-296 -65.5t-297 65.5t-195.5 186t-68.5 280.5zM165 1306l400 230h149l400 -230l-97 -153l-374 153l-381 -153zM442 512q0 -113 53.5 -177.5t149.5 -64.5
q94 0 146.5 64.5t52.5 177.5t-52.5 177.5t-146.5 64.5q-96 0 -149.5 -64.5t-53.5 -177.5z" />
    <glyph glyph-name="otilde" unicode="&#xf5;" horiz-adv-x="1286" 
d="M84 512q0 160 68.5 280.5t195.5 186t297 65.5t296 -65.5t193.5 -186t67.5 -280.5t-67.5 -280.5t-193.5 -186t-296 -65.5t-297 65.5t-195.5 186t-68.5 280.5zM145 1364q72 70 149 113.5t150 43.5q64 0 211 -41q49 -14 98.5 -25.5t80.5 -11.5q68 0 113.5 20.5t84.5 47.5
l103 -133q-70 -68 -149 -113t-150 -45q-63 0 -211 41q-49 14 -97.5 25.5t-78.5 11.5q-106 0 -201 -68zM442 512q0 -113 53.5 -177.5t149.5 -64.5q94 0 146.5 64.5t52.5 177.5t-52.5 177.5t-146.5 64.5q-96 0 -149.5 -64.5t-53.5 -177.5z" />
    <glyph glyph-name="odieresis" unicode="&#xf6;" horiz-adv-x="1286" 
d="M84 512q0 160 68.5 280.5t195.5 186t297 65.5t296 -65.5t193.5 -186t67.5 -280.5t-67.5 -280.5t-193.5 -186t-296 -65.5t-297 65.5t-195.5 186t-68.5 280.5zM178 1355q0 82 57.5 138.5t135.5 56.5q80 0 137 -56.5t57 -138.5q0 -80 -57 -137t-137 -57q-78 0 -135.5 57
t-57.5 137zM442 512q0 -113 53.5 -177.5t149.5 -64.5q94 0 146.5 64.5t52.5 177.5t-52.5 177.5t-146.5 64.5q-96 0 -149.5 -64.5t-53.5 -177.5zM717 1355q0 82 57.5 138.5t135.5 56.5q79 0 136.5 -56.5t57.5 -138.5q0 -80 -57.5 -137t-136.5 -57q-78 0 -135.5 57t-57.5 137z
" />
    <glyph glyph-name="divide" unicode="&#xf7;" horiz-adv-x="1529" 
d="M176 526v289h1178v-289h-1178zM573 184q0 78 56.5 134.5t134.5 56.5t134 -56.5t56 -134.5t-56 -134t-134 -56t-134.5 56t-56.5 134zM573 1169q0 78 56.5 134.5t134.5 56.5t134 -56.5t56 -134.5t-56 -134t-134 -56t-134.5 56.5t-56.5 133.5z" />
    <glyph glyph-name="oslash" unicode="&#xf8;" horiz-adv-x="1286" 
d="M84 512q0 160 68.5 280.5t195.5 186t297 65.5q96 0 172 -20l49 98h168l-76 -153q117 -68 180.5 -185.5t63.5 -271.5q0 -160 -67.5 -280.5t-193.5 -186t-296 -65.5q-96 0 -172 20l-49 -98h-168l76 151q-119 66 -183.5 184.5t-64.5 274.5zM442 512q0 -92 39 -158l199 398
q-10 2 -35 2q-96 0 -149.5 -64.5t-53.5 -177.5zM610 272q12 -2 35 -2q94 0 146.5 64.5t52.5 177.5q0 94 -37 156z" />
    <glyph glyph-name="ugrave" unicode="&#xf9;" horiz-adv-x="1341" 
d="M111 354v670h358v-582q0 -96 40 -133t114 -37q164 0 174 174l-2 580h362v-649q0 -70 92 -70h60v-307h-115q-113 0 -190.5 43t-108.5 123q-47 -90 -153.5 -138t-239.5 -48q-197 0 -294 95t-97 279zM272 1495q0 41 37 86q45 53 94 53q47 0 105 -53q68 -55 293 -342
q8 -12 33 -43l-54 -64q-106 53 -245.5 131t-190.5 121q-72 57 -72 111z" />
    <glyph glyph-name="uacute" unicode="&#xfa;" horiz-adv-x="1341" 
d="M111 354v670h358v-582q0 -96 40 -133t114 -37q164 0 174 174l-2 580h362v-649q0 -70 92 -70h60v-307h-115q-113 0 -190.5 43t-108.5 123q-47 -90 -153.5 -138t-239.5 -48q-197 0 -294 95t-97 279zM411 1196q25 31 33 43q225 287 293 342q57 53 104 53q49 0 95 -53
q37 -45 37 -86q0 -53 -72 -111q-80 -70 -436 -252z" />
    <glyph glyph-name="ucircumflex" unicode="&#xfb;" horiz-adv-x="1341" 
d="M111 354v670h358v-582q0 -96 40 -133t114 -37q164 0 174 174l-2 580h362v-649q0 -70 92 -70h60v-307h-115q-113 0 -190.5 43t-108.5 123q-47 -90 -153.5 -138t-239.5 -48q-197 0 -294 95t-97 279zM145 1306l400 230h149l400 -230l-97 -153l-374 153l-381 -153z" />
    <glyph glyph-name="udieresis" unicode="&#xfc;" horiz-adv-x="1341" 
d="M111 354v670h358v-582q0 -96 40 -133t114 -37q164 0 174 174l-2 580h362v-649q0 -70 92 -70h60v-307h-115q-113 0 -190.5 43t-108.5 123q-47 -90 -153.5 -138t-239.5 -48q-197 0 -294 95t-97 279zM157 1355q0 82 57.5 138.5t135.5 56.5q80 0 137 -56.5t57 -138.5
q0 -80 -57 -137t-137 -57q-78 0 -135.5 57t-57.5 137zM696 1355q0 82 57.5 138.5t135.5 56.5q79 0 136.5 -56.5t57.5 -138.5q0 -80 -57.5 -137t-136.5 -57q-78 0 -135.5 57t-57.5 137z" />
    <glyph glyph-name="yacute" unicode="&#xfd;" horiz-adv-x="1267" 
d="M23 1024h368l242 -625l241 625h371l-393 -928l-41 -96h-4q-66 -150 -142.5 -238t-183 -130t-262.5 -42h-63v308h63q76 0 131.5 21.5t102.5 90.5zM426 1196q25 31 33 43q225 287 293 342q57 53 104 53q49 0 95 -53q37 -45 37 -86q0 -53 -72 -111q-80 -70 -436 -252z" />
    <glyph glyph-name="thorn" unicode="&#xfe;" horiz-adv-x="1318" 
d="M129 -410v1926h358v-592q115 121 310 120q211 0 324.5 -138t113.5 -384q0 -262 -124 -402t-331 -140q-190 0 -293 116v-506h-358zM487 377q0 -106 177 -107q110 0 161.5 63.5t51.5 188.5q0 117 -45.5 174.5t-147.5 57.5q-82 0 -125 -31t-57.5 -64.5t-14.5 -48.5v-233z
" />
    <glyph glyph-name="ydieresis" unicode="&#xff;" horiz-adv-x="1267" 
d="M23 1024h368l242 -625l241 625h371l-393 -928l-41 -96h-4q-66 -150 -142.5 -238t-183 -130t-262.5 -42h-63v308h63q76 0 131.5 21.5t102.5 90.5zM172 1355q0 82 57.5 138.5t135.5 56.5q80 0 137 -56.5t57 -138.5q0 -80 -57 -137t-137 -57q-78 0 -135.5 57t-57.5 137z
M711 1355q0 82 57.5 138.5t135.5 56.5q79 0 136.5 -56.5t57.5 -138.5q0 -80 -57.5 -137t-136.5 -57q-78 0 -135.5 57t-57.5 137z" />
    <glyph glyph-name="OE" unicode="&#x152;" horiz-adv-x="2459" 
d="M106 758q0 233 98.5 412.5t279 279.5t415.5 100q236 0 414 -100v66h1014v-297h-652v-279h613v-297h-605l-8 -53v-293h674v-297h-1036v66q-178 -100 -414 -101q-236 0 -416 100.5t-278.5 279.5t-98.5 413zM485 758q0 -141 51.5 -251t145.5 -171.5t217 -61.5t217 61.5
t145.5 171t51.5 251.5q0 141 -51.5 250.5t-145.5 171t-217 61.5t-217 -61.5t-145.5 -171t-51.5 -250.5z" />
    <glyph glyph-name="oe" unicode="&#x153;" horiz-adv-x="1976" 
d="M84 512q0 160 68.5 280.5t195.5 186t297 65.5q221 0 369 -112q137 113 370 112q242 0 375 -124.5t133 -358.5v-45q0 -55 -6 -123h-684q12 -72 69.5 -104.5t196.5 -32.5q61 0 150.5 8t155.5 17l47 -265q-80 -18 -188.5 -27t-200.5 -9q-274 0 -418 112q-147 -113 -369 -112
q-170 0 -297 65.5t-195.5 186t-68.5 280.5zM442 512q0 -113 53.5 -177.5t149.5 -64.5q94 0 146.5 64.5t52.5 177.5t-52.5 177.5t-146.5 64.5q-96 0 -149.5 -64.5t-53.5 -177.5zM1196 598h385v23q0 72 -48 110.5t-132 38.5q-115 0 -157 -44t-48 -128z" />
    <glyph glyph-name="Ydieresis" unicode="&#x178;" horiz-adv-x="1445" 
d="M0 1516h389l334 -631l334 631h389l-541 -959v-557h-362v557zM260 1847q0 82 57.5 138.5t135.5 56.5q80 0 137 -56.5t57 -138.5q0 -80 -57 -137t-137 -57q-78 0 -135.5 57t-57.5 137zM799 1847q0 82 57.5 138.5t135.5 56.5q79 0 136.5 -56.5t57.5 -138.5q0 -80 -57.5 -137
t-136.5 -57q-78 0 -135.5 57t-57.5 137z" />
    <glyph glyph-name="circumflex" unicode="&#x2c6;" horiz-adv-x="1153" 
d="M102 1245l400 230h149l400 -230l-97 -153l-374 153l-381 -153z" />
    <glyph glyph-name="tilde" unicode="&#x2dc;" horiz-adv-x="1193" 
d="M102 1303q72 70 149 113.5t150 43.5q64 0 211 -41q49 -14 98.5 -25.5t80.5 -11.5q68 0 113.5 20.5t84.5 47.5l103 -133q-70 -68 -149 -113t-150 -45q-63 0 -211 41q-49 14 -97.5 25.5t-78.5 11.5q-106 0 -201 -68z" />
    <glyph glyph-name="uni2000" unicode="&#x2000;" horiz-adv-x="1125" 
 />
    <glyph glyph-name="uni2001" unicode="&#x2001;" horiz-adv-x="2251" 
 />
    <glyph glyph-name="uni2002" unicode="&#x2002;" horiz-adv-x="1125" 
 />
    <glyph glyph-name="uni2003" unicode="&#x2003;" horiz-adv-x="2251" 
 />
    <glyph glyph-name="uni2004" unicode="&#x2004;" horiz-adv-x="750" 
 />
    <glyph glyph-name="uni2005" unicode="&#x2005;" horiz-adv-x="562" 
 />
    <glyph glyph-name="uni2006" unicode="&#x2006;" horiz-adv-x="375" 
 />
    <glyph glyph-name="uni2007" unicode="&#x2007;" horiz-adv-x="375" 
 />
    <glyph glyph-name="uni2008" unicode="&#x2008;" horiz-adv-x="281" 
 />
    <glyph glyph-name="uni2009" unicode="&#x2009;" horiz-adv-x="450" 
 />
    <glyph glyph-name="uni200A" unicode="&#x200a;" horiz-adv-x="125" 
 />
    <glyph glyph-name="uni2010" unicode="&#x2010;" horiz-adv-x="1007" 
d="M176 526v291h655v-291h-655z" />
    <glyph glyph-name="uni2011" unicode="&#x2011;" horiz-adv-x="1007" 
d="M176 526v291h655v-291h-655z" />
    <glyph glyph-name="figuredash" unicode="&#x2012;" horiz-adv-x="1007" 
d="M176 526v291h655v-291h-655z" />
    <glyph glyph-name="endash" unicode="&#x2013;" horiz-adv-x="1417" 
d="M176 526v291h1065v-291h-1065z" />
    <glyph glyph-name="emdash" unicode="&#x2014;" horiz-adv-x="2031" 
d="M176 526v291h1679v-291h-1679z" />
    <glyph glyph-name="quoteleft" unicode="&#x2018;" horiz-adv-x="614" 
d="M111 1112q0 115 52 210t119.5 155.5t108.5 72.5l96 -84q-12 -6 -36.5 -39.5t-44 -80t-19.5 -89.5q53 -20 85 -67t32 -107q0 -80 -57.5 -137t-141.5 -57q-80 0 -137 52t-57 171z" />
    <glyph glyph-name="quoteright" unicode="&#x2019;" horiz-adv-x="614" 
d="M111 1356q0 80 57 137t141 57q80 0 137.5 -54t57.5 -171q0 -113 -52.5 -208t-120 -155.5t-108.5 -72.5l-96 82q12 8 36.5 40.5t43 78t18.5 88.5q-53 25 -83.5 71.5t-30.5 106.5z" />
    <glyph glyph-name="quotesinglbase" unicode="&#x201a;" horiz-adv-x="612" 
d="M121 201q0 80 57 137t141 57q80 0 137.5 -54t57.5 -171q0 -113 -52.5 -208t-120 -155.5t-108.5 -72.5l-96 82q12 8 36.5 40.5t43 78t18.5 88.5q-53 25 -83.5 71.5t-30.5 106.5z" />
    <glyph glyph-name="quotedblleft" unicode="&#x201c;" horiz-adv-x="1163" 
d="M117 1112q0 115 52 210t119.5 155.5t108.5 72.5l96 -84q-12 -6 -36.5 -39.5t-44 -80t-19.5 -89.5q53 -20 85 -67t32 -107q0 -80 -57.5 -137t-141.5 -57q-80 0 -137 52t-57 171zM660 1112q0 115 52 210t119.5 155.5t108.5 72.5l96 -84q-12 -6 -36.5 -39.5t-44 -80
t-19.5 -89.5q53 -20 85 -67t32 -107q0 -80 -57.5 -137t-141.5 -57q-80 0 -137 52t-57 171z" />
    <glyph glyph-name="quotedblright" unicode="&#x201d;" horiz-adv-x="1163" 
d="M117 1356q0 80 57 137t141 57q80 0 137.5 -54t57.5 -171q0 -113 -52.5 -208t-120 -155.5t-108.5 -72.5l-96 82q12 8 36.5 40.5t43 78t18.5 88.5q-53 25 -83.5 71.5t-30.5 106.5zM660 1356q0 80 57 137t141 57q80 0 137.5 -54t57.5 -171q0 -113 -52.5 -208t-120 -155.5
t-108.5 -72.5l-96 82q12 8 36.5 40.5t43 78t18.5 88.5q-53 25 -83.5 71.5t-30.5 106.5z" />
    <glyph glyph-name="quotedblbase" unicode="&#x201e;" horiz-adv-x="1165" 
d="M121 207q0 80 57 137t141 57q80 0 137.5 -54t57.5 -171q0 -113 -52.5 -208t-120 -155.5t-108.5 -72.5l-96 82q12 8 36.5 40.5t43 78t18.5 88.5q-53 25 -83.5 71.5t-30.5 106.5zM664 207q0 80 57 137t141 57q80 0 137.5 -54t57.5 -171q0 -113 -52.5 -208t-120 -155.5
t-108.5 -72.5l-96 82q12 8 36.5 40.5t43 78t18.5 88.5q-53 25 -83.5 71.5t-30.5 106.5z" />
    <glyph glyph-name="bullet" unicode="&#x2022;" horiz-adv-x="1001" 
d="M199 795q0 82 41 150.5t110.5 109.5t151.5 41t150.5 -41t109.5 -109.5t41 -150.5t-41 -152t-109.5 -110.5t-150.5 -40.5t-151.5 40.5t-110.5 110.5t-41 152z" />
    <glyph glyph-name="ellipsis" unicode="&#x2026;" horiz-adv-x="1767" 
d="M133 162q0 82 57.5 140t139.5 58t140 -58t58 -140q0 -80 -58 -138.5t-140 -58.5t-139.5 58.5t-57.5 138.5zM686 162q0 82 57.5 140t139.5 58t140 -58t58 -140q0 -80 -58 -138.5t-140 -58.5t-139.5 58.5t-57.5 138.5zM1239 162q0 82 58.5 140t138.5 58q82 0 140 -58
t58 -140q0 -80 -58 -138.5t-140 -58.5q-80 0 -138.5 58.5t-58.5 138.5z" />
    <glyph glyph-name="uni202F" unicode="&#x202f;" horiz-adv-x="450" 
 />
    <glyph glyph-name="guilsinglleft" unicode="&#x2039;" horiz-adv-x="899" 
d="M176 633v65l369 461l178 -147l-225 -346l225 -347l-178 -147z" />
    <glyph glyph-name="guilsinglright" unicode="&#x203a;" horiz-adv-x="899" 
d="M176 319l225 347l-225 346l178 147l369 -461v-65l-369 -461z" />
    <glyph glyph-name="uni205F" unicode="&#x205f;" horiz-adv-x="562" 
 />
    <glyph glyph-name="Euro" unicode="&#x20ac;" horiz-adv-x="1449" 
d="M111 442v269h108v47q0 47 2 69h-108v269h151q70 223 245 338.5t449 115.5q70 0 146 -9t132 -21.5t60 -16.5l-51 -293q6 -2 -70.5 14.5t-218.5 16.5q-111 0 -182.5 -35t-111.5 -110h387v-269h-449l-2 -69v-47h449v-269h-398q39 -86 115 -127t190 -41q158 0 246 18l88 17
l51 -293q-18 -12 -138 -31.5t-247 -19.5q-279 0 -453.5 122t-242.5 355h-147z" />
    <glyph glyph-name="trademark" unicode="&#x2122;" horiz-adv-x="2156" 
d="M221 1257v259h709v-259h-193v-499h-323v499h-193zM1059 758v758h291l147 -312l145 312h293v-758h-293v239l-98 -194h-94l-100 194v-239h-291z" />
    <glyph glyph-name="uni25FC" unicode="&#x25fc;" horiz-adv-x="1025" 
d="M0 1025h1025v-1025h-1025v1025z" />
    <glyph glyph-name="uniFB03" unicode="&#xfb03;" horiz-adv-x="2234" 
d="M66 731v293h165v2q0 489 545 490h139v-308h-139q-102 0 -143 -37.5t-43 -146.5h397v2q0 489 545 490h65v-308h-65q-102 0 -143 -37.5t-43 -146.5h755v-1024h-358v731h-397v-731h-359v731h-397v-731h-359v731h-165zM1722 1352q0 82 58.5 140t140.5 58t141.5 -58t59.5 -140
t-59.5 -141.5t-141.5 -59.5t-140.5 59.5t-58.5 141.5z" />
    <glyph glyph-name="uniFB04" unicode="&#xfb04;" horiz-adv-x="2424" 
d="M66 731v293h165v2q0 489 543 490h141v-308h-141q-100 0 -141 -37.5t-43 -146.5h397v2q0 489 543 490h569v-1010q0 -111 50.5 -156t166.5 -41h64v-309h-64q-289 0 -432 123t-143 418v667h-211q-100 0 -141 -36.5t-43 -147.5h235v-293h-235v-731h-359v731h-397v-731h-359
v731h-165z" />
    </font>
</defs>
</svg>
